<?xml version="1.0" standalone="no"?>
<!DOCTYPE svg PUBLIC "-//W3C//DTD SVG 20010904//EN"
 "http://www.w3.org/TR/2001/REC-SVG-20010904/DTD/svg10.dtd">
<svg version="1.0" xmlns="http://www.w3.org/2000/svg"
 width="1024.000000pt" height="1024.000000pt" viewBox="0 0 1024.000000 1024.000000"
 preserveAspectRatio="xMidYMid meet">

<g transform="translate(0.000000,1024.000000) scale(0.100000,-0.100000)"
fill="#000000" stroke="none">
<path d="M3085 10224 c-53 -26 -79 -50 -72 -68 6 -14 16 -10 67 25 77 53 81
81 5 43z"/>
<path d="M3164 10201 c6 -22 15 -43 19 -47 4 -4 7 -17 8 -28 0 -21 1 -21 9 -1
14 32 11 53 -7 58 -18 4 -5 8 61 22 13 3 26 12 30 20 4 12 -6 15 -63 15 l-69
0 12 -39z"/>
<path d="M7630 10231 c0 -16 -69 -161 -93 -192 -15 -22 -17 -30 -7 -46 10 -16
2 -40 -60 -163 -158 -316 -366 -664 -447 -749 -34 -36 -63 -70 -63 -74 0 -11
58 -34 100 -40 19 -2 27 -2 18 0 -22 5 -24 23 -3 23 8 0 14 3 13 8 -4 10 23
72 31 72 4 0 22 28 40 63 18 34 52 94 76 132 24 39 44 75 45 82 0 6 3 13 8 15
4 2 27 44 51 93 24 50 65 126 91 170 26 44 50 92 54 107 3 15 13 34 22 42 8 9
12 21 8 27 -4 7 -3 9 4 6 6 -5 13 12 17 43 4 27 11 52 15 55 5 3 7 29 5 58 -2
41 4 67 30 127 49 114 58 140 51 147 -3 3 -6 1 -6 -6z"/>
<path d="M7862 10185 c1 -31 -1 -56 -7 -58 -5 -2 -2 -11 8 -21 16 -17 17 -16
17 4 0 12 7 29 16 38 15 14 15 17 0 27 -23 18 -20 25 12 25 16 0 32 8 40 20
12 19 10 20 -39 20 l-51 0 4 -55z"/>
<path d="M9116 10153 c-120 -224 -199 -394 -200 -434 l-1 -40 28 33 c15 18 35
47 44 63 15 29 189 336 239 423 l25 42 -44 0 -44 0 -47 -87z"/>
<path d="M9280 10236 c0 -2 11 -6 25 -8 13 -3 22 -1 19 3 -5 9 -44 13 -44 5z"/>
<path d="M2955 10144 c19 -28 25 -50 25 -93 0 -69 -24 -112 -77 -140 -21 -11
-31 -20 -23 -21 43 -1 130 108 130 162 -1 35 -36 105 -59 117 -19 11 -19 9 4
-25z"/>
<path d="M9210 10120 c0 -5 8 -10 18 -10 9 0 28 -3 42 -6 18 -4 16 -1 -9 10
-39 19 -51 20 -51 6z"/>
<path d="M2640 10061 c-13 -40 -12 -46 10 -88 32 -61 89 -93 161 -92 l54 1
-54 8 c-87 13 -139 77 -154 190 -3 21 -5 18 -17 -19z"/>
<path d="M2797 10067 c-8 -22 8 -39 34 -35 35 5 33 42 -2 46 -16 2 -29 -3 -32
-11z"/>
<path d="M7850 10049 c0 -5 5 -7 10 -4 6 3 10 8 10 11 0 2 -4 4 -10 4 -5 0
-10 -5 -10 -11z"/>
<path d="M7846 10009 c-2 -8 -7 -36 -11 -64 -4 -27 -9 -61 -12 -75 -3 -14 -3
-22 1 -19 8 7 36 162 30 168 -2 2 -6 -2 -8 -10z"/>
<path d="M9130 9980 c0 -5 7 -10 16 -10 8 0 12 5 9 10 -3 6 -10 10 -16 10 -5
0 -9 -4 -9 -10z"/>
<path d="M2450 9960 c0 -5 5 -10 11 -10 5 0 7 5 4 10 -3 6 -8 10 -11 10 -2 0
-4 -4 -4 -10z"/>
<path d="M3170 9951 c0 -5 -18 -36 -41 -69 -112 -169 -330 -219 -506 -117 -45
27 -133 112 -133 130 0 6 -8 19 -16 30 -16 19 -16 19 -9 -5 9 -34 53 -118 82
-157 26 -34 147 -120 200 -142 45 -18 90 -20 137 -4 48 16 106 44 122 58 6 6
26 24 46 41 42 37 90 106 107 154 25 69 30 90 20 90 -5 0 -9 -4 -9 -9z"/>
<path d="M2920 9859 c-19 -11 -44 -19 -55 -19 -43 0 -47 -16 -12 -40 26 -18
33 -29 29 -47 -6 -33 13 -29 59 15 42 39 56 77 38 99 -14 16 -15 16 -59 -8z"/>
<path d="M7811 9794 c0 -11 3 -14 6 -6 3 7 2 16 -1 19 -3 4 -6 -2 -5 -13z"/>
<path d="M7771 9644 c0 -11 3 -14 6 -6 3 7 2 16 -1 19 -3 4 -6 -2 -5 -13z"/>
<path d="M7736 9522 c-29 -91 -84 -195 -155 -289 -66 -88 -180 -210 -236 -252
l-30 -22 33 18 c19 10 60 39 92 64 81 65 68 28 -21 -61 -86 -86 -155 -121
-241 -123 -57 -2 -140 21 -158 44 -3 3 -12 9 -20 12 -8 3 19 4 60 2 67 -4 70
-3 30 5 -25 5 -62 17 -83 27 -33 14 -40 15 -48 2 -8 -13 -10 -12 -13 10 0 5
-5 13 -10 18 -5 4 -6 3 -2 -4 8 -15 -20 -24 -92 -28 l-57 -4 0 -37 c0 -25 5
-38 15 -40 8 -2 49 -10 90 -17 41 -8 88 -19 104 -26 16 -6 45 -14 65 -17 20
-2 47 -7 61 -10 38 -9 153 -6 159 4 3 5 27 14 54 22 26 7 47 16 47 21 0 5 12
12 27 15 15 4 33 12 40 18 6 6 34 29 62 51 27 22 50 45 51 52 0 7 8 16 17 21
11 7 23 39 34 93 11 51 18 71 18 52 1 -32 14 -43 26 -23 14 23 44 161 47 218
1 34 6 62 9 62 4 0 6 6 6 13 -1 6 9 45 22 85 13 40 21 75 19 77 -2 3 -13 -21
-22 -53z"/>
<path d="M9479 9363 c11 -23 33 -61 49 -85 25 -38 28 -51 27 -120 0 -43 3 -78
7 -78 4 0 8 -5 8 -10 0 -31 -123 83 -211 195 l-54 69 -7 -59 c-4 -33 -12 -71
-17 -85 -5 -14 -13 -41 -16 -60 -6 -30 -21 -71 -55 -155 -5 -11 -18 -50 -30
-87 -12 -37 -30 -78 -41 -92 -10 -13 -19 -31 -19 -40 0 -9 -4 -16 -9 -16 -14
0 -39 -62 -39 -98 -1 -73 -46 -142 -92 -142 -24 0 -34 29 -17 49 31 36 57 94
52 112 -9 27 -44 28 -165 7 -42 -7 -74 -19 -90 -34 -14 -12 -74 -50 -134 -84
-115 -66 -214 -100 -356 -121 -75 -11 -81 -10 -109 11 -17 12 -31 17 -31 11 0
-5 5 -13 10 -16 19 -12 10 -24 -22 -28 -23 -3 -21 -4 7 -2 27 1 47 -4 61 -17
15 -13 40 -20 90 -22 l69 -4 61 -67 60 -67 52 7 c62 8 68 4 119 -72 43 -65 56
-73 141 -80 56 -5 75 -2 112 16 24 11 47 21 52 21 4 0 23 15 42 33 87 80 109
97 124 97 10 0 60 -11 112 -25 52 -13 96 -23 97 -21 3 3 -76 40 -181 85 -56
24 -58 34 -3 22 44 -10 47 -7 10 13 -24 13 -25 15 -8 16 11 0 53 -9 93 -20 39
-11 75 -20 79 -19 5 0 -32 21 -82 46 -63 33 -84 48 -70 50 45 9 49 12 31 31
-12 14 -13 21 -4 30 7 7 18 12 26 12 12 0 12 3 2 15 -11 13 -8 15 15 15 23 0
26 2 15 15 -11 13 -9 15 13 15 14 0 55 -9 92 -21 86 -26 105 -20 29 11 -32 13
-74 33 -93 44 l-35 20 27 11 c15 6 24 14 21 18 -10 10 26 47 46 47 10 0 61
-13 114 -29 53 -15 96 -25 96 -22 0 4 -34 19 -75 35 -106 40 -111 45 -81 76
100 101 268 149 371 106 33 -14 50 -15 107 -6 37 5 69 10 71 10 2 0 13 8 25
18 11 9 30 24 42 32 44 30 61 49 80 87 11 21 19 32 20 25 0 -15 -488 -1483
-496 -1491 -3 -3 -26 3 -52 13 -500 192 -1688 613 -1699 603 -2 -3 49 -24 114
-47 153 -56 285 -116 301 -138 11 -15 14 -15 22 -2 8 13 10 12 10 -2 0 -10 3
-18 8 -18 4 0 15 -12 24 -27 18 -29 18 -30 22 26 1 8 6 16 12 18 8 3 14 -25
19 -82 4 -47 11 -85 17 -85 5 0 16 -7 24 -15 9 -8 33 -15 53 -15 22 0 44 -6
51 -15 9 -11 17 -12 32 -4 11 6 21 9 22 7 2 -2 8 -12 14 -23 6 -11 21 -20 34
-21 66 -2 78 -5 78 -18 0 -19 33 -29 69 -21 22 5 32 2 39 -11 7 -13 18 -16 45
-11 19 3 39 1 45 -5 14 -14 236 -9 261 6 5 4 12 2 16 -4 4 -6 11 -8 16 -4 9 5
267 -79 355 -116 28 -12 46 -15 57 -8 9 5 17 5 18 1 1 -4 9 28 19 72 9 44 50
172 89 285 40 113 85 246 100 295 74 238 129 345 176 345 8 0 15 5 15 10 0 6
9 10 20 10 14 0 20 -7 21 -22 1 -18 3 -16 10 10 10 35 20 40 39 18 10 -13 62
-15 90 -5 3 1 8 1 13 0 4 0 7 8 7 18 0 19 -8 20 -121 20 -70 0 -126 4 -132 10
-16 16 8 20 133 23 l115 3 3 288 c1 158 -1 287 -4 287 -11 0 -254 -155 -344
-219 -82 -59 -110 -72 -110 -51 0 6 7 10 15 10 21 0 20 67 -2 107 -21 38 -229
297 -291 363 l-43 45 20 -42z"/>
<path d="M6964 9076 c-21 -18 -57 -43 -79 -54 -50 -27 -28 -29 28 -3 41 19
121 91 101 91 -6 0 -28 -15 -50 -34z"/>
<path d="M9060 9085 c-7 -8 -18 -15 -25 -15 -23 0 -240 -118 -238 -129 3 -14
-146 -103 -159 -95 -7 4 -8 2 -4 -4 5 -8 -1 -12 -15 -12 -13 0 -34 -11 -48
-24 -15 -13 -69 -48 -121 -78 -52 -30 -113 -65 -135 -79 l-40 -24 35 44 c46
57 56 66 115 106 65 44 114 71 145 79 24 7 24 6 6 -8 -21 -17 -11 -22 13 -7 7
5 11 13 8 18 -9 14 4 26 78 71 39 23 81 51 95 62 l25 20 -81 -3 c-66 -3 -87
-7 -115 -27 -19 -13 -36 -27 -39 -30 -3 -3 -57 -40 -120 -82 -109 -72 -149
-106 -181 -154 -33 -50 -144 -164 -170 -175 -31 -12 -41 -36 -12 -24 45 17
120 27 160 21 36 -5 59 0 119 25 45 19 74 37 74 46 0 8 6 13 13 10 20 -7 138
59 218 123 40 33 93 69 117 81 38 19 48 20 85 9 70 -20 102 -18 105 7 4 25
-31 53 -66 53 -35 0 -17 18 45 45 45 20 53 28 48 44 -4 15 5 25 45 50 47 29
62 53 41 65 -5 3 -14 -1 -21 -9z"/>
<path d="M6410 9015 c0 -13 33 -54 48 -60 9 -4 56 -15 103 -25 47 -10 105 -28
128 -40 53 -27 71 -21 71 24 0 31 -3 34 -36 41 -20 3 -60 17 -90 31 -58 26
-82 29 -133 14 -25 -7 -40 -6 -62 6 -16 8 -29 12 -29 9z"/>
<path d="M8720 8905 c-68 -43 -59 -46 12 -4 60 35 65 39 52 39 -6 0 -34 -16
-64 -35z"/>
<path d="M0 8922 c0 -36 566 -1101 629 -1181 l19 -24 158 95 c88 52 203 118
256 146 l98 50 6 -26 c4 -15 13 -37 20 -49 13 -21 11 -24 -29 -51 -23 -15
-103 -61 -177 -102 -74 -40 -172 -95 -218 -122 -45 -26 -87 -48 -92 -48 -6 0
-21 24 -35 53 -13 28 -50 97 -83 152 -32 55 -116 206 -187 335 -70 129 -151
276 -180 325 -29 50 -81 144 -116 210 -53 99 -65 115 -67 93 -3 -27 76 -194
98 -208 6 -4 12 -15 14 -26 6 -26 35 -82 47 -89 5 -4 8 -9 5 -13 -2 -4 14 -34
35 -67 21 -33 55 -94 76 -135 21 -41 40 -77 43 -80 11 -10 160 -277 180 -322
11 -26 28 -55 38 -64 9 -9 22 -29 27 -43 24 -63 86 -171 98 -171 13 1 55 23
307 163 155 87 261 129 355 142 58 9 153 50 133 59 -7 3 -1 3 13 0 15 -3 30
-1 33 5 4 5 13 8 20 5 7 -3 20 1 27 9 21 21 55 37 83 39 22 2 26 8 31 50 7 49
18 61 29 32 7 -19 41 -11 76 20 14 12 46 32 71 44 26 12 52 29 59 37 7 8 17
15 23 15 6 0 40 29 76 64 70 67 104 87 228 137 43 17 81 35 84 41 6 10 50 29
104 45 11 4 24 11 30 15 5 5 25 18 43 28 17 11 31 25 30 31 -2 7 11 16 28 20
16 5 39 19 51 31 21 23 40 68 28 68 -6 0 -241 -121 -290 -150 -16 -10 -59 -33
-95 -52 -36 -20 -95 -52 -132 -72 -37 -21 -71 -35 -75 -33 -4 3 -8 31 -8 63
l0 58 95 54 c52 30 151 84 220 120 132 69 184 101 177 109 -3 2 -121 -59 -262
-136 -141 -78 -260 -141 -263 -141 -4 0 -15 18 -24 40 -21 50 -32 50 -128 0
-82 -43 -89 -52 -13 -19 26 11 59 25 73 30 21 8 22 7 8 -3 -9 -7 -25 -19 -35
-25 -15 -11 -14 -11 10 -3 34 12 56 0 80 -42 28 -50 23 -61 -50 -97 -38 -18
-156 -81 -263 -139 -300 -163 -402 -214 -410 -205 -5 4 -18 25 -29 47 -17 29
-19 41 -11 52 7 7 9 17 6 22 -3 5 46 40 109 77 64 37 114 70 112 72 -8 7 -268
-128 -274 -143 -3 -8 2 -30 12 -48 10 -18 16 -40 13 -47 -3 -8 -59 -43 -124
-78 -135 -73 -326 -184 -366 -212 -15 -10 -31 -19 -37 -19 -10 0 -125 197
-186 320 -21 41 -77 147 -125 235 -49 88 -145 268 -214 400 -69 132 -126 234
-126 227z m1996 -561 c-3 -5 -115 -67 -249 -137 -133 -70 -287 -152 -342 -181
-55 -29 -107 -52 -114 -53 -29 0 -14 9 289 172 30 17 60 34 65 38 6 5 82 45
170 89 150 76 194 93 181 72z"/>
<path d="M8030 8540 c-8 -5 -10 -10 -5 -10 6 0 17 5 25 10 8 5 11 10 5 10 -5
0 -17 -5 -25 -10z"/>
<path d="M8025 8434 c-43 -39 -45 -43 -18 -30 18 9 41 16 51 16 23 0 56 35 47
49 -11 19 -29 11 -80 -35z"/>
<path d="M0 8190 l0 -72 52 -57 c29 -32 58 -68 65 -82 108 -227 108 -227 111
-348 3 -102 2 -116 -15 -129 -17 -13 -16 -13 6 -10 29 4 44 49 65 187 17 113
7 181 -39 278 -43 92 -78 142 -152 219 -95 99 -93 98 -93 14z"/>
<path d="M9368 8183 c7 -3 16 -2 19 1 4 3 -2 6 -13 5 -11 0 -14 -3 -6 -6z"/>
<path d="M7814 8136 c11 -9 24 -16 30 -16 12 0 7 5 -24 19 -24 11 -24 11 -6
-3z"/>
<path d="M360 7748 c0 -50 -24 -191 -39 -229 -5 -15 -16 -29 -23 -31 -7 -3 5
-14 27 -25 l40 -21 4 174 c2 96 1 174 -3 174 -3 0 -6 -19 -6 -42z"/>
<path d="M84 7415 c-27 -14 -50 -25 -52 -25 -2 0 0 10 3 23 6 17 4 19 -5 11
-23 -22 -7 -57 30 -68 32 -9 33 -10 10 -14 -14 -2 -35 -13 -47 -25 -22 -19
-23 -28 -23 -159 0 -94 3 -138 11 -138 8 0 9 -13 4 -37 -4 -26 -3 -35 3 -28
19 18 90 159 123 240 17 44 36 86 42 93 20 25 -2 23 -37 -3 -25 -19 -44 -25
-67 -23 -48 5 -50 28 -2 28 38 0 98 28 120 58 22 27 26 5 9 -39 -23 -58 -13
-60 19 -4 15 25 29 44 31 42 6 -6 -90 -235 -141 -337 -25 -50 -61 -113 -80
-139 -22 -31 -35 -60 -35 -80 l0 -32 95 2 c74 1 97 5 107 18 12 14 11 14 -4 3
-17 -14 -43 -8 -33 8 3 4 -2 10 -10 14 -12 4 -11 11 7 43 12 21 26 40 30 41
17 7 8 65 -13 83 -20 17 -21 17 -40 -2 -10 -10 -19 -21 -19 -24 0 -3 -11 -18
-25 -33 -14 -15 -25 -24 -25 -20 0 4 31 68 69 143 68 134 81 147 81 74 0 -16
-4 -29 -9 -29 -13 0 -23 -34 -16 -52 7 -19 104 -43 138 -34 19 4 31 1 46 -15
11 -12 24 -18 29 -15 23 14 54 138 55 219 1 74 -1 86 -26 123 -36 53 -99 98
-166 118 -77 23 -129 20 -187 -9z m334 -125 c14 -25 23 -43 21 -40 -3 3 -30
32 -60 64 -49 54 -51 58 -20 40 18 -10 45 -39 59 -64z"/>
<path d="M5063 7343 l87 -4 0 -792 0 -793 -77 -16 c-43 -8 -81 -14 -85 -11 -5
2 -8 335 -8 739 0 483 -3 734 -10 734 -6 0 -10 -33 -10 -80 0 -73 -2 -80 -20
-80 -11 0 -20 -7 -20 -15 0 -8 -9 -15 -20 -15 -11 0 -20 -4 -20 -10 0 -5 -9
-10 -20 -10 -11 0 -20 -7 -20 -15 0 -8 9 -15 20 -15 11 0 20 -4 20 -10 0 -5
-5 -10 -11 -10 -5 0 -7 -4 -4 -10 9 -15 -40 -12 -78 4 -18 7 -47 30 -65 50
-36 42 -42 39 -11 -5 27 -38 87 -69 150 -76 l49 -6 0 -192 0 -193 -46 -31
c-26 -17 -71 -40 -100 -51 -91 -33 -246 -52 -259 -30 -6 10 55 113 74 124 6 4
11 11 11 17 0 5 -21 -6 -47 -25 -61 -43 -136 -81 -191 -95 -121 -33 -362 0
-362 50 0 4 35 26 78 49 42 22 95 56 117 75 l40 35 -55 -23 c-116 -51 -261
-70 -405 -53 l-50 5 40 -10 c38 -11 230 -16 269 -8 10 2 21 -2 23 -8 3 -8 -5
-13 -21 -13 -13 0 -28 -4 -31 -10 -3 -5 -12 -10 -18 -10 -8 0 -8 3 2 9 8 5 9
11 3 15 -18 11 -25 -34 -8 -53 9 -10 13 -21 9 -26 -5 -4 -3 -6 2 -2 6 3 22 -3
35 -14 21 -16 23 -20 10 -29 -10 -6 -11 -10 -2 -10 6 0 12 -7 12 -15 0 -8 -9
-15 -20 -15 -13 0 -20 -7 -20 -20 0 -13 7 -20 20 -20 17 0 20 -7 20 -40 0 -33
3 -40 20 -40 13 0 20 -7 20 -20 0 -11 7 -20 15 -20 15 0 20 -14 30 -92 4 -32
11 -48 21 -48 8 0 14 -4 14 -10 0 -5 9 -10 20 -10 13 0 20 -7 20 -20 0 -13 7
-20 20 -20 13 0 20 -7 20 -20 0 -13 7 -20 20 -20 17 0 20 -7 21 -42 0 -24 3
-37 6 -30 10 25 31 11 41 -28 5 -21 7 -42 3 -45 -6 -7 -7 -12 -10 -40 0 -8 -8
-15 -16 -15 -8 0 -15 -9 -15 -20 0 -11 -5 -20 -11 -20 -7 0 -8 -14 -4 -40 6
-36 5 -40 -14 -40 -19 0 -21 -6 -21 -60 l0 -60 -30 0 c-28 0 -30 -2 -30 -38 0
-37 2 -39 33 -39 17 0 65 -4 106 -8 99 -11 69 -21 -90 -31 -68 -4 -118 -9
-111 -11 14 -5 17 -73 2 -73 -5 0 -10 -9 -10 -20 0 -16 -7 -20 -35 -20 -19 0
-35 -4 -35 -10 0 -5 -9 -10 -20 -10 -11 0 -20 -4 -20 -10 0 -6 -30 -10 -70
-10 -66 0 -70 1 -71 23 -1 52 -17 -22 -22 -104 -3 -46 -6 -86 -7 -89 -3 -9
-32 85 -33 108 -1 14 -6 21 -13 18 -7 -3 -24 4 -37 15 -14 10 -30 19 -36 19
-7 0 -24 8 -38 18 -15 9 -36 18 -48 19 -11 1 -45 7 -75 12 -30 6 -80 13 -111
16 l-56 6 -9 46 -9 46 -60 5 c-128 11 -119 15 -125 -53 l-6 -60 -7 50 c-5 28
-9 57 -10 65 -2 11 -22 16 -82 21 l-80 5 77 2 c42 1 79 5 81 10 3 4 1 48 -3
97 -4 50 -8 79 -9 65 -1 -21 -7 -26 -31 -28 -21 -2 -30 2 -30 13 0 8 -9 15
-20 15 -20 0 -24 9 -20 44 1 11 -3 15 -9 12 -6 -4 -11 -16 -11 -27 0 -36 -28
-77 -58 -83 -17 -4 -28 -14 -29 -25 -7 -88 -67 -167 -148 -195 -97 -33 -188
-13 -252 55 -30 33 -63 110 -63 149 0 13 -8 20 -27 22 -33 4 -50 35 -63 111
-8 55 -2 74 29 79 15 2 17 7 9 28 -6 15 -12 20 -15 13 -3 -7 -13 -13 -24 -13
-20 0 -21 -3 -24 -60 -5 -96 -15 -292 -15 -301 0 -6 -6 -6 -19 0 -11 6 -88 9
-195 6 -135 -3 -176 -1 -176 9 0 9 43 11 186 8 l187 -5 -5 78 c-4 57 -10 82
-22 90 -9 7 -16 22 -16 34 0 20 -5 21 -77 21 -65 0 -80 -3 -100 -22 -19 -17
-23 -18 -23 -6 0 9 6 19 13 21 6 3 -3 6 -20 6 -18 1 -33 -3 -33 -9 0 -5 -9
-10 -20 -10 -15 0 -20 -7 -20 -27 0 -20 -3 -24 -9 -14 -7 11 -10 11 -15 0 -3
-8 -4 8 -2 35 2 27 10 52 17 57 10 6 11 9 2 9 -7 0 -13 5 -13 11 0 5 4 8 9 5
4 -3 6 7 3 22 l-5 27 -9 -30 c-13 -49 -46 -341 -53 -475 -4 -69 -3 -212 1
-317 l7 -193 38 0 39 0 0 129 0 130 136 73 c74 40 157 90 184 110 l50 37 5
-27 c25 -119 164 -648 203 -772 27 -85 62 -202 77 -259 l29 -103 29 83 c93
273 238 783 283 997 17 81 26 97 38 66 3 -9 6 -474 6 -1035 l0 -1019 66 0 65
0 -2 611 c-2 515 0 613 12 619 8 5 31 22 53 39 21 17 42 31 45 31 3 -1 51 -41
105 -90 55 -50 102 -90 105 -90 4 0 55 41 114 91 l108 90 69 -45 c38 -25 72
-46 74 -46 3 0 26 -13 52 -29 l46 -30 256 -1 c141 0 258 -3 261 -5 2 -3 -106
-5 -240 -6 l-244 0 93 -47 92 -47 0 -1067 0 -1067 58 -16 c98 -29 280 -64 452
-86 215 -29 571 -31 760 -5 144 19 291 48 402 78 l78 20 2 1067 3 1066 100 50
100 50 -180 5 -180 6 175 4 c96 2 184 4 195 5 38 3 70 18 153 71 45 30 86 54
90 54 8 0 24 -61 78 -295 20 -88 49 -207 64 -265 15 -58 38 -148 50 -200 12
-52 27 -115 34 -140 l12 -45 43 180 c108 454 182 750 190 758 11 11 108 -54
115 -78 3 -11 6 -284 6 -607 l0 -588 55 0 55 0 0 288 c1 1180 6 1738 18 1760
17 30 32 28 32 -4 0 -44 64 -284 205 -769 49 -165 90 -312 93 -328 4 -28 22
-48 22 -26 0 7 31 114 69 238 72 235 154 528 212 761 18 74 35 137 36 139 2 3
16 -7 31 -21 34 -32 81 -61 197 -123 50 -26 96 -52 103 -58 8 -7 12 -47 12
-138 l0 -129 46 0 46 0 -5 308 c-6 364 -30 584 -89 802 -20 75 -36 111 -24 55
3 -16 8 -39 10 -50 2 -11 7 -28 11 -37 5 -13 2 -18 -9 -18 -8 0 -18 11 -22 25
l-6 25 -158 0 -158 0 -6 43 c-4 23 -11 49 -17 57 -9 13 -10 13 -6 -2 16 -48
17 -90 4 -146 -14 -62 -14 -62 8 -62 31 0 36 -19 24 -87 -14 -83 -24 -103 -53
-103 -15 0 -26 -7 -29 -17 -3 -10 -11 -40 -18 -68 -24 -91 -113 -155 -216
-155 -121 0 -223 94 -223 207 0 14 -9 24 -30 31 -18 7 -35 23 -44 44 l-15 33
6 -30 c3 -16 13 -39 22 -49 9 -11 11 -16 4 -13 -6 4 -13 2 -15 -4 -2 -7 -36
-14 -81 -17 -56 -3 -77 -8 -77 -18 0 -8 -4 -14 -10 -14 -5 0 -10 -7 -10 -15 0
-18 19 -22 134 -31 120 -8 91 -22 -54 -25 -175 -4 -200 -8 -200 -30 0 -15 -7
-19 -36 -19 l-36 0 3 -47 c3 -56 2 -56 -89 -20 -34 14 -60 22 -57 18 2 -5 -17
-8 -43 -8 -26 0 -60 -5 -75 -12 -16 -6 -34 -11 -40 -11 -7 0 -18 -9 -25 -20
-7 -11 -23 -20 -37 -20 -18 0 -25 -5 -25 -20 0 -11 -7 -23 -15 -26 -8 -4 -15
-12 -15 -20 0 -8 -4 -14 -10 -14 -14 0 -52 -89 -46 -106 3 -8 1 -14 -4 -14 -6
0 -10 9 -10 20 0 11 -4 20 -10 20 -5 0 -10 18 -10 40 l0 40 -40 0 c-33 0 -40
3 -40 20 0 13 -7 20 -20 20 -13 0 -20 7 -20 20 0 13 -7 20 -20 20 -13 0 -20 7
-20 20 0 17 -7 20 -45 20 l-45 0 -2 40 c-1 22 -2 48 -2 58 -1 20 -31 29 -106
31 -30 1 -61 5 -69 10 -14 9 -2 13 87 26 l42 7 0 54 c0 30 -4 54 -10 54 -5 0
-10 18 -10 39 0 22 -5 41 -11 43 -9 3 -9 9 0 25 6 12 11 60 11 107 0 85 0 86
25 86 22 0 25 5 31 50 4 28 10 50 15 50 5 0 9 18 9 40 0 33 3 40 20 40 11 0
20 5 20 10 0 6 9 10 20 10 13 0 20 7 20 20 0 13 7 20 20 20 16 0 20 7 20 30 0
23 4 30 20 30 13 0 20 7 20 20 0 13 7 20 20 20 17 0 20 7 20 39 0 23 -5 41
-12 44 -8 2 -1 15 20 34 20 20 32 41 32 57 0 24 4 26 40 26 40 0 40 0 40 39 0
22 -5 41 -12 43 -7 3 -9 14 -5 30 6 21 17 28 69 43 35 9 73 18 85 19 12 0 21
5 20 10 -1 4 13 16 30 25 18 9 33 19 33 23 0 4 -30 -8 -67 -27 -88 -44 -179
-59 -312 -52 -107 6 -229 37 -290 74 l-26 16 28 -27 c15 -15 32 -24 37 -21 6
4 9 1 8 -6 -2 -7 37 -33 85 -59 48 -26 92 -51 98 -57 21 -21 -89 -56 -190 -61
-144 -7 -231 19 -354 105 -50 35 -50 35 -28 7 37 -48 71 -103 71 -114 0 -16
-160 -12 -221 6 -68 20 -159 66 -182 91 -16 18 -17 40 -15 209 3 156 5 188 17
186 8 -2 36 2 64 8 108 23 148 85 145 227 l-1 88 -6 -100 c-7 -108 -27 -159
-59 -148 -13 4 -14 3 -3 -5 9 -7 10 -12 2 -16 -6 -4 -11 -4 -12 1 -6 80 -33
117 -93 128 -20 4 -36 11 -36 16 0 5 -9 9 -20 9 -11 0 -20 -7 -20 -15 0 -8 -9
-15 -20 -15 -18 0 -20 8 -22 133 l-3 132 -90 1 -90 0 88 -3z m-99 -614 c-3 -5
-10 -7 -15 -3 -5 3 -7 10 -3 15 3 5 10 7 15 3 5 -3 7 -10 3 -15z m1046 -159
c0 -5 -2 -10 -4 -10 -3 0 -8 5 -11 10 -3 6 -1 10 4 10 6 0 11 -4 11 -10z m160
-34 c0 -7 -40 -14 -44 -7 -3 4 6 8 20 9 13 1 24 0 24 -2z m167 -2 c-9 -9 -78
-14 -73 -5 3 4 22 8 42 9 21 2 35 0 31 -4z m-2256 -132 c-7 -2 -18 1 -23 6 -8
8 -4 9 13 5 13 -4 18 -8 10 -11z m734 -125 c42 -42 54 -95 34 -151 -27 -76
-105 -105 -182 -66 -45 22 -45 22 -84 4 -51 -25 -73 -82 -54 -144 21 -70 74
-118 191 -173 58 -27 111 -54 118 -59 9 -8 -10 -18 -69 -39 -45 -16 -93 -36
-106 -45 -21 -13 -30 -14 -56 -3 -50 20 -139 78 -180 118 -21 20 -39 35 -40
34 -1 -1 -12 0 -24 3 -20 6 -40 54 -22 54 8 0 10 -8 8 -26 0 -7 35 -34 39 -30
1 2 -10 25 -25 51 -35 63 -44 187 -19 262 34 103 128 175 226 175 36 -1 53 4
62 17 24 33 62 51 106 51 36 0 50 -6 77 -33z m667 5 c22 -20 49 -31 81 -35 67
-9 127 -38 170 -81 62 -61 72 -89 72 -196 0 -118 -21 -168 -107 -252 -99 -98
-224 -149 -615 -252 -350 -92 -432 -143 -450 -277 -6 -43 24 -107 70 -150 34
-30 160 -99 183 -99 32 0 7 -18 -87 -63 -55 -27 -107 -46 -115 -43 -8 3 -41
23 -72 45 -195 132 -239 346 -107 514 105 133 226 189 625 291 303 77 385 112
447 194 56 74 40 157 -37 197 -27 14 -32 13 -76 -10 -54 -29 -72 -30 -118 -11
-65 27 -95 120 -61 187 37 71 138 92 197 41z m-2447 -702 c3 -5 1 -10 -4 -10
-6 0 -11 5 -11 10 0 6 2 10 4 10 3 0 8 -4 11 -10z m-565 -95 c0 -5 -5 -3 -10
5 -5 8 -10 20 -10 25 0 6 5 3 10 -5 5 -8 10 -19 10 -25z m3116 -17 c54 -57 69
-83 95 -163 43 -133 6 -264 -108 -379 -76 -76 -177 -125 -453 -216 -234 -78
-329 -122 -390 -181 -49 -47 -59 -92 -36 -153 20 -53 105 -136 170 -167 59
-30 64 -45 19 -64 -19 -8 -39 -15 -43 -15 -5 0 -22 -12 -39 -26 l-31 -26 -63
35 c-83 47 -153 117 -185 186 -21 45 -27 71 -27 131 0 65 4 84 32 141 70 142
232 239 568 339 155 46 282 102 334 145 112 95 87 247 -55 342 -58 39 -67 53
-31 53 12 0 58 13 102 29 44 16 85 29 90 30 6 1 29 -18 51 -41z m-3097 -51
c-2 -1 -33 0 -69 3 l-65 5 53 9 c28 4 52 13 52 19 0 6 7 1 16 -11 9 -13 14
-24 13 -25z m1678 -49 c-3 -8 -6 -5 -6 6 -1 11 2 17 5 13 3 -3 4 -12 1 -19z
m981 -175 l-3 -188 -75 -17 c-41 -9 -77 -15 -80 -12 -3 3 -5 87 -5 187 l0 182
60 17 c33 9 70 17 83 17 l22 1 -2 -187z m-2604 50 c35 -41 140 -123 157 -123
7 0 9 -3 5 -7 -4 -5 -13 -8 -19 -8 -7 0 -30 -35 -52 -77 -56 -108 -57 -108
-95 -49 -42 66 -100 199 -100 230 0 14 12 43 27 64 24 35 29 38 38 22 5 -10
23 -33 39 -52z m395 36 c30 -40 25 -100 -13 -184 -30 -67 -87 -165 -96 -165
-3 0 -27 43 -55 95 l-50 94 88 81 c48 45 87 88 87 96 0 23 15 16 39 -17z
m4326 1 c4 -12 42 -50 86 -87 44 -36 79 -69 77 -72 -31 -75 -84 -181 -90 -181
-24 0 -138 203 -138 245 0 27 40 115 51 115 4 0 11 -9 14 -20z m418 -11 c37
-65 34 -100 -17 -201 -55 -110 -71 -132 -85 -123 -6 3 -27 39 -46 80 -20 40
-42 76 -51 79 -18 7 -12 14 81 93 34 28 67 63 75 77 17 33 21 33 43 -5z m-970
6 c101 -30 185 -113 207 -203 10 -45 6 -92 -16 -163 -3 -11 3 -18 16 -22 25
-6 26 -47 6 -125 -17 -62 -29 -80 -59 -84 -17 -2 -24 -16 -37 -71 -18 -73 -43
-108 -102 -138 -77 -40 -169 -33 -236 17 -38 30 -61 71 -76 139 -10 44 -15 50
-41 55 -25 4 -32 12 -47 60 -9 30 -17 75 -17 98 -1 36 3 45 20 49 14 4 18 11
13 22 -3 9 -9 46 -11 82 -5 57 -2 75 19 121 40 86 89 128 185 158 71 23 113
24 176 5z m-3182 -5 c119 -22 189 -52 230 -98 59 -67 74 -152 44 -237 -8 -22
-15 -41 -15 -42 0 -1 10 -3 23 -5 20 -3 22 -8 19 -50 -2 -25 -11 -70 -20 -100
-15 -45 -21 -54 -46 -58 -27 -5 -31 -11 -43 -63 -17 -76 -42 -111 -117 -159
-82 -53 -95 -55 -160 -24 -87 41 -124 79 -142 145 -24 89 -31 101 -57 101 -19
0 -28 9 -41 45 -10 24 -20 69 -23 100 -5 52 -4 57 16 62 19 5 22 10 16 32 -18
74 -17 137 5 194 53 140 147 187 311 157z m1985 -583 c23 -20 55 -65 75 -103
31 -62 34 -76 34 -154 0 -73 -4 -93 -28 -142 -60 -122 -140 -176 -412 -282
-263 -102 -313 -133 -356 -218 -24 -46 -24 -72 0 -123 17 -38 90 -115 122
-128 15 -7 19 -4 -73 -64 -28 -18 -53 -33 -57 -33 -3 0 -30 20 -58 45 -35 31
-63 68 -85 113 -29 58 -33 77 -33 142 1 176 109 283 407 401 57 22 135 53 173
68 175 69 243 160 206 274 -12 34 -139 167 -161 167 -6 0 -10 4 -10 9 0 5 24
17 53 25 28 9 70 24 92 35 45 20 52 18 111 -32z m-372 -250 l1 -179 -73 -30
c-40 -17 -75 -28 -79 -24 -6 5 -7 114 -3 348 0 25 6 29 63 47 34 11 68 19 76
18 11 -2 14 -37 15 -180z m259 -499 c57 -76 72 -119 71 -203 0 -66 -5 -89 -26
-130 -46 -87 -133 -154 -287 -220 -188 -80 -266 -149 -263 -232 2 -38 14 -63
55 -116 l31 -37 -39 -35 c-36 -34 -39 -35 -62 -20 -59 39 -123 163 -123 240 0
54 31 125 74 169 55 57 77 71 243 155 211 108 257 167 219 288 -10 29 -30 69
-47 87 l-29 34 67 25 c38 14 73 26 80 26 7 1 23 -14 36 -31z m-263 -184 l0
-145 -55 -25 c-31 -14 -62 -23 -70 -20 -25 9 -36 79 -29 180 4 53 12 100 18
105 8 7 93 39 134 50 1 1 2 -64 2 -145z m158 -445 c39 -52 58 -148 43 -206
-26 -96 -82 -149 -286 -273 -104 -63 -127 -128 -80 -227 l24 -53 -22 0 c-38 0
-87 38 -107 83 -51 110 3 236 126 295 19 8 34 19 34 24 0 4 4 8 10 8 5 0 33
15 62 34 83 53 118 99 118 156 0 31 -31 103 -50 115 -22 13 -8 36 38 59 26 14
50 25 54 26 3 0 20 -18 36 -41z m-176 -36 c3 -10 4 -55 2 -101 -2 -90 -12
-109 -65 -136 -32 -16 -39 -11 -58 43 -15 46 -14 123 3 146 11 16 86 60 107
64 4 1 9 -7 11 -16z m100 -440 c48 -55 60 -129 32 -189 -21 -45 -79 -94 -109
-94 -14 0 -25 2 -25 4 0 2 12 29 26 61 30 65 29 131 -1 165 -20 22 -19 25 22
51 36 22 37 22 55 2z m-115 -80 c13 -50 7 -113 -17 -163 -13 -27 -27 -47 -33
-43 -5 3 -20 30 -34 61 -28 63 -25 97 14 142 32 38 60 39 70 3z m-40 -726 c-1
-45 -3 -5 -3 88 0 94 2 130 3 82 2 -48 2 -125 0 -170z"/>
<path d="M7160 7180 c-18 -12 -2 -12 25 0 13 6 15 9 5 9 -8 0 -22 -4 -30 -9z"/>
<path d="M7028 7143 c6 -2 18 -2 25 0 6 3 1 5 -13 5 -14 0 -19 -2 -12 -5z"/>
<path d="M4672 7110 c0 -19 2 -27 5 -17 2 9 2 25 0 35 -3 9 -5 1 -5 -18z"/>
<path d="M6598 7133 c7 -3 16 -2 19 1 4 3 -2 6 -13 5 -11 0 -14 -3 -6 -6z"/>
<path d="M6978 7133 c7 -3 16 -2 19 1 4 3 -2 6 -13 5 -11 0 -14 -3 -6 -6z"/>
<path d="M6813 7123 c20 -2 54 -2 75 0 20 2 3 4 -38 4 -41 0 -58 -2 -37 -4z"/>
<path d="M5400 7019 c0 -5 5 -7 10 -4 6 3 10 8 10 11 0 2 -4 4 -10 4 -5 0 -10
-5 -10 -11z"/>
<path d="M7089 6963 l-34 -38 38 34 c34 33 42 41 34 41 -2 0 -19 -17 -38 -37z"/>
<path d="M446 6921 c-16 -32 -26 -63 -22 -69 4 -6 -7 -26 -24 -45 -34 -39 -36
-47 -16 -47 18 0 56 47 56 68 0 9 7 23 15 32 11 12 30 120 20 120 -1 0 -14
-26 -29 -59z"/>
<path d="M7019 6903 c-13 -16 -12 -17 4 -4 9 7 17 15 17 17 0 8 -8 3 -21 -13z"/>
<path d="M329 6873 c-13 -16 -12 -17 4 -4 16 13 21 21 13 21 -2 0 -10 -8 -17
-17z"/>
<path d="M6979 6873 c-13 -16 -12 -17 4 -4 9 7 17 15 17 17 0 8 -8 3 -21 -13z"/>
<path d="M6905 6830 c-27 -16 -46 -30 -41 -30 11 0 96 49 96 55 0 7 -2 7 -55
-25z"/>
<path d="M285 6821 c-6 -5 -19 -11 -30 -14 -19 -4 -19 -5 1 -6 12 0 27 6 34
14 14 16 10 20 -5 6z"/>
<path d="M6810 6785 c-14 -8 -20 -14 -15 -14 6 0 21 6 35 14 14 8 21 14 15 14
-5 0 -21 -6 -35 -14z"/>
<path d="M340 6714 c0 -27 -36 -70 -65 -78 -28 -8 -102 40 -101 65 1 18 -8 20
-86 25 l-88 5 0 -116 c0 -70 4 -115 10 -115 6 0 10 7 10 15 0 8 8 15 18 15 33
0 62 34 62 74 0 25 4 36 15 36 8 0 15 5 15 10 0 14 64 12 78 -2 7 -7 12 -20
12 -30 0 -10 4 -18 9 -18 5 0 14 -13 19 -30 30 -83 145 -48 155 48 2 17 7 35
10 39 4 3 7 19 7 33 0 24 -6 29 -40 38 -38 9 -40 9 -40 -14z"/>
<path d="M9656 6710 c21 -16 42 -30 46 -30 5 0 43 -16 85 -36 43 -20 104 -47
135 -60 31 -13 116 -53 187 -88 114 -56 131 -62 131 -46 0 24 -18 33 -343 179
-255 115 -310 133 -241 81z"/>
<path d="M3650 6720 l-95 -6 85 -3 85 -3 -77 -16 c-42 -10 -80 -20 -83 -24 -4
-3 11 -3 32 2 128 26 153 32 153 41 0 6 3 8 8 6 4 -3 16 -1 27 4 23 9 16 9
-135 -1z"/>
<path d="M6350 6710 c78 -29 229 -59 223 -44 -2 6 -23 15 -46 19 -114 19 -115
20 -27 26 l85 5 -115 1 c-63 1 -128 4 -145 7 -16 4 -5 -3 25 -14z"/>
<path d="M6618 6723 c7 -3 16 -2 19 1 4 3 -2 6 -13 5 -11 0 -14 -3 -6 -6z"/>
<path d="M9599 6682 c9 -17 81 -55 489 -256 137 -67 153 -73 150 -54 -2 17
-38 40 -163 105 -161 84 -459 223 -476 223 -6 0 -6 -7 0 -18z"/>
<path d="M9520 6615 c0 -16 87 -84 108 -85 6 0 12 -5 12 -12 0 -9 3 -9 12 0
17 17 25 15 32 -10 3 -13 19 -29 38 -37 57 -25 392 -222 396 -233 2 -4 8 -8
12 -8 5 0 32 -13 60 -30 l50 -29 0 29 c0 26 -10 34 -127 101 -71 40 -198 113
-283 164 -196 116 -285 165 -299 165 -6 0 -11 -7 -11 -15z"/>
<path d="M3634 6586 c11 -9 24 -16 30 -16 12 0 7 5 -24 19 -24 11 -24 11 -6
-3z"/>
<path d="M7926 6370 c3 -14 11 -32 16 -40 6 -10 7 -7 2 10 -3 14 -11 32 -16
40 -6 10 -7 7 -2 -10z"/>
<path d="M7961 6285 c0 -5 9 -28 20 -50 10 -22 16 -29 13 -15 -7 28 -33 80
-33 65z"/>
<path d="M2096 6145 c-9 -26 -7 -32 5 -12 6 10 9 21 6 23 -2 3 -7 -2 -11 -11z"/>
<path d="M7423 6123 c15 -2 37 -2 50 0 12 2 0 4 -28 4 -27 0 -38 -2 -22 -4z"/>
<path d="M8031 6100 c0 -8 4 -22 9 -30 12 -18 12 -2 0 25 -6 13 -9 15 -9 5z"/>
<path d="M8251 6055 c1 -19 18 -51 18 -35 0 8 -4 22 -9 30 -5 8 -9 11 -9 5z"/>
<path d="M7681 6035 c13 -23 49 -67 49 -59 0 5 -13 23 -28 39 -15 17 -24 26
-21 20z"/>
<path d="M8051 6045 c1 -19 18 -51 18 -35 0 8 -4 22 -9 30 -5 8 -9 11 -9 5z"/>
<path d="M7190 5995 c-7 -9 -11 -17 -9 -20 3 -2 10 5 17 15 14 24 10 26 -8 5z"/>
<path d="M8271 5990 c0 -8 4 -24 9 -35 l9 -20 0 20 c0 11 -4 27 -9 35 -9 13
-10 13 -9 0z"/>
<path d="M2036 5965 c-9 -26 -7 -32 5 -12 6 10 9 21 6 23 -2 3 -7 -2 -11 -11z"/>
<path d="M7163 5865 c0 -38 2 -53 4 -32 2 20 2 52 0 70 -2 17 -4 1 -4 -38z"/>
<path d="M8291 5925 c0 -5 8 -46 19 -90 11 -44 27 -125 35 -180 22 -133 25
-144 18 -55 -3 41 -5 99 -5 127 1 34 -3 52 -10 50 -6 -1 -13 4 -16 12 -3 10 0
12 12 8 9 -4 16 -2 16 3 0 5 -9 12 -20 15 -11 3 -20 14 -21 23 -1 21 -27 101
-28 87z"/>
<path d="M2403 5880 c0 -25 2 -35 4 -22 2 12 2 32 0 45 -2 12 -4 2 -4 -23z"/>
<path d="M2991 5904 c0 -11 3 -14 6 -6 3 7 2 16 -1 19 -3 4 -6 -2 -5 -13z"/>
<path d="M2015 5879 c-4 -6 -5 -12 -2 -15 2 -3 7 2 10 11 7 17 1 20 -8 4z"/>
<path d="M2401 5814 c0 -11 3 -14 6 -6 3 7 2 16 -1 19 -3 4 -6 -2 -5 -13z"/>
<path d="M2992 5805 c0 -16 2 -22 5 -12 2 9 2 23 0 30 -3 6 -5 -1 -5 -18z"/>
<path d="M1785 5735 c-3 -26 -4 -49 -2 -51 3 -3 8 16 12 41 3 26 4 49 2 51 -3
3 -8 -16 -12 -41z"/>
<path d="M7170 5766 c0 -8 -6 -17 -12 -19 -8 -3 -6 -6 5 -6 11 -1 17 6 17 19
0 11 -2 20 -5 20 -3 0 -5 -6 -5 -14z"/>
<path d="M2981 5754 c0 -11 3 -14 6 -6 3 7 2 16 -1 19 -3 4 -6 -2 -5 -13z"/>
<path d="M3013 5739 c10 -6 18 -23 18 -42 2 -31 2 -31 6 -4 5 29 -11 57 -31
57 -6 0 -3 -5 7 -11z"/>
<path d="M8398 5723 c6 -2 18 -2 25 0 6 3 1 5 -13 5 -14 0 -19 -2 -12 -5z"/>
<path d="M2120 5680 c0 -6 33 -10 80 -10 47 0 80 4 80 10 0 6 -33 10 -80 10
-47 0 -80 -4 -80 -10z"/>
<path d="M2048 5673 c6 -2 18 -2 25 0 6 3 1 5 -13 5 -14 0 -19 -2 -12 -5z"/>
<path d="M1772 5645 c0 -16 2 -22 5 -12 2 9 2 23 0 30 -3 6 -5 -1 -5 -18z"/>
<path d="M7132 5650 c0 -14 2 -19 5 -12 2 6 2 18 0 25 -3 6 -5 1 -5 -13z"/>
<path d="M1756 5578 c-3 -18 -8 -60 -11 -93 -8 -85 -13 -99 -31 -84 -12 10
-14 -10 -15 -137 -1 -82 -3 -329 -5 -549 -3 -306 -1 -401 9 -407 7 -4 35 -8
62 -9 30 -1 38 -3 20 -6 -16 -2 -45 -6 -62 -9 l-33 -5 0 -229 0 -230 58 -1 57
-2 -52 -6 c-28 -4 -55 -9 -58 -13 -3 -3 -3 -266 2 -584 4 -319 10 -532 13
-474 l5 105 60 -6 60 -6 -57 -1 c-44 -2 -58 -6 -58 -17 0 -8 9 -15 20 -15 13
0 20 -7 20 -20 0 -16 7 -20 35 -20 28 0 35 -4 35 -20 0 -11 5 -20 10 -20 7 0
8 -18 4 -50 l-7 -50 44 0 c24 0 51 -5 59 -10 10 -6 11 -10 3 -10 -8 0 -13 -15
-13 -40 0 -22 5 -40 10 -40 6 0 10 -9 10 -20 0 -11 5 -20 10 -20 6 0 10 -9 10
-20 0 -11 6 -20 14 -20 8 0 18 -9 21 -20 3 -11 13 -20 21 -20 8 0 14 -9 14
-20 0 -11 5 -20 10 -20 6 0 10 -16 10 -36 0 -24 7 -43 19 -53 13 -12 17 -25
14 -43 -5 -24 -8 -26 -30 -17 -14 5 -94 10 -179 11 -84 0 -151 5 -148 9 5 9
-26 27 -67 39 -22 7 -43 1 -106 -31 -61 -31 -85 -39 -110 -34 -18 3 -42 1 -53
-5 -22 -12 -27 -36 -7 -43 19 -7 -16 -40 -76 -72 -28 -15 -82 -56 -118 -91
-64 -61 -111 -90 -129 -79 -5 3 -29 -4 -54 -16 -41 -19 -50 -20 -121 -9 l-77
12 -61 -38 c-77 -46 -94 -60 -111 -93 -36 -69 -45 -83 -62 -96 -11 -8 -14 -14
-6 -15 16 0 15 -15 -1 -32 -8 -7 -19 -23 -26 -36 -6 -12 -18 -22 -26 -22 -8 0
-19 -9 -25 -21 -7 -11 -18 -18 -25 -15 -8 3 -21 -4 -28 -14 -8 -11 -17 -17
-20 -14 -4 4 -10 -2 -14 -12 -10 -28 -42 -54 -59 -47 -8 3 -14 0 -14 -6 0 -17
-14 -13 -51 12 -38 26 -80 44 -64 28 6 -5 35 -25 65 -43 58 -35 217 -144 260
-178 l25 -20 -37 0 c-31 0 -38 -4 -38 -20 0 -11 5 -20 10 -20 12 0 14 -27 3
-32 -14 -6 -52 -66 -59 -92 -3 -14 -12 -26 -19 -26 -20 0 -53 -118 -50 -177 3
-42 1 -51 -11 -46 -29 11 -12 -6 33 -34 88 -52 171 -83 206 -76 14 3 28 0 31
-6 4 -6 -23 -73 -60 -148 -36 -76 -88 -194 -116 -263 -27 -69 -69 -162 -94
-207 -24 -46 -44 -85 -44 -88 0 -3 47 -5 104 -5 l105 0 4 43 4 42 1 -42 2 -43
284 0 284 0 16 40 c19 47 20 64 5 54 -6 -3 -131 -3 -277 2 l-267 8 225 8 c124
5 252 7 285 5 l60 -4 52 116 c29 64 83 184 121 266 39 83 130 285 204 450
l135 300 -4 65 c-2 36 0 85 5 110 9 41 10 37 11 -47 1 -72 4 -93 15 -93 7 0
39 -11 70 -25 32 -14 62 -22 68 -19 6 4 8 3 5 -3 -3 -5 10 -17 29 -26 47 -23
56 -21 17 3 -18 11 -33 21 -33 23 0 2 57 4 128 6 105 2 129 5 140 19 11 15 14
15 22 2 5 -8 10 -21 10 -27 0 -7 9 -13 20 -13 11 0 20 -4 20 -10 0 -5 18 -10
39 -10 22 0 42 -5 44 -12 3 -7 7 -2 8 12 1 14 5 -6 9 -45 5 -49 7 -12 8 122
l2 192 -291 1 c-293 1 -397 11 -237 23 45 4 183 7 306 7 l222 0 0 199 0 198
-197 8 c-108 4 -206 11 -217 15 -32 12 127 22 280 18 l131 -3 6 230 c4 127 7
331 8 455 1 147 4 211 10 185 4 -22 8 -225 8 -451 l1 -411 158 -6 c86 -4 271
-7 410 -7 l252 0 1 48 2 47 7 -50 c5 -27 9 -146 9 -262 l1 -213 314 0 c355 0
325 -8 328 88 2 55 2 54 7 -18 l6 -75 135 -2 c74 -1 346 -2 604 -2 258 -1 467
-3 465 -5 -2 -2 -272 -7 -599 -10 -327 -4 -597 -9 -600 -11 -3 -2 -4 -305 -2
-674 l2 -671 605 0 605 0 0 408 c1 224 3 531 6 683 l6 277 846 5 847 4 3 184
c1 102 7 188 12 193 7 7 10 -57 10 -182 l0 -192 60 0 c47 0 60 -3 60 -15 0
-12 -13 -15 -57 -15 l-58 0 1 -53 c1 -28 3 -189 4 -357 2 -168 5 -290 7 -272
3 24 9 32 24 32 10 0 19 5 19 10 0 6 23 10 50 10 48 0 51 1 57 30 5 28 23 43
23 20 0 -5 16 -10 35 -10 32 0 35 -2 35 -30 0 -23 4 -30 20 -30 11 0 20 -4 20
-9 0 -5 9 -11 19 -14 11 -3 27 -21 35 -41 8 -20 19 -36 23 -36 11 0 33 -63 42
-120 8 -52 30 -97 60 -124 25 -23 29 -76 6 -76 -9 0 -15 -9 -15 -25 0 -33 -20
-75 -36 -75 -8 0 -17 12 -20 27 -4 16 -14 38 -21 50 -8 12 -16 28 -17 36 -1 8
-9 22 -19 31 -9 10 -17 22 -17 28 0 15 -82 91 -121 111 -30 16 -31 16 -9 0 62
-43 128 -121 150 -179 41 -110 9 -258 -76 -354 l-46 -50 321 0 321 0 -16 38
c-9 20 -60 145 -114 277 -53 132 -139 341 -190 465 -149 363 -260 644 -255
648 5 6 453 197 480 206 17 5 25 -4 50 -57 23 -47 35 -62 50 -60 27 2 212 72
310 118 44 21 166 73 270 117 105 44 197 86 205 94 8 7 -60 -18 -150 -57 -269
-115 -583 -240 -599 -237 -14 3 -70 74 -71 91 0 4 5 7 10 7 6 0 95 36 198 81
257 112 494 208 550 224 12 3 27 15 33 27 22 41 35 46 -361 -122 -269 -113
-419 -172 -433 -167 -6 2 45 26 114 55 337 139 671 281 676 286 20 19 -45 -2
-189 -63 -224 -94 -600 -252 -615 -258 -8 -3 -13 3 -13 14 0 21 50 48 220 117
157 64 172 72 156 85 -11 10 -23 8 -58 -7 -24 -11 -54 -23 -68 -27 -14 -4 -53
-20 -87 -36 -34 -16 -67 -29 -73 -29 -6 0 -29 -9 -50 -20 l-40 -20 0 59 c0 41
-4 59 -12 58 -113 -4 -608 5 -608 12 0 4 12 8 28 8 15 0 153 1 308 2 l281 2 6
217 c4 119 8 258 8 307 2 82 2 85 9 40 5 -27 9 -164 9 -302 l1 -253 28 1 27 1
-25 7 c-24 7 -24 7 8 14 26 5 32 11 32 32 0 20 5 25 26 25 26 0 54 20 54 39 0
6 7 11 15 11 14 0 17 10 20 79 1 22 5 25 50 27 27 1 51 7 53 13 2 6 12 11 23
11 14 0 19 7 19 26 0 26 20 54 40 54 25 0 60 50 67 95 5 43 25 61 36 33 4 -9
8 -10 14 -2 4 6 31 15 58 19 28 4 44 10 38 12 -22 8 -15 43 7 43 18 0 20 7 20
60 0 41 -4 60 -12 60 -8 0 -7 4 3 10 9 5 41 11 71 12 l55 2 6 531 c4 291 7
743 7 1004 0 261 2 477 5 479 3 3 6 -42 7 -99 0 -57 2 -108 3 -114 2 -5 3 -34
4 -62 l1 -53 133 0 c193 0 267 9 267 30 0 11 -10 20 -25 24 -23 6 -25 11 -25
61 0 48 -2 55 -20 55 -19 0 -20 7 -20 109 0 63 4 112 10 116 21 13 8 24 -32
27 -47 3 -62 30 -20 36 27 4 30 32 3 32 -15 0 -20 11 -26 58 -4 31 -7 76 -7
100 0 23 -4 42 -9 42 -5 0 -9 -11 -9 -25 0 -14 -4 -25 -9 -25 -5 0 -11 -8 -13
-17 -3 -10 -7 23 -11 72 -20 246 -18 235 -38 235 -15 0 -19 7 -19 40 0 22 -4
40 -10 40 -5 0 -10 9 -10 20 0 11 -4 20 -10 20 -5 0 -10 8 -10 19 0 17 -33 31
-75 31 -15 0 -15 4 -15 -244 0 -495 -60 -837 -220 -1261 -100 -263 -274 -571
-457 -808 -78 -101 -291 -343 -340 -386 -21 -19 -66 -60 -99 -91 -417 -385
-1001 -688 -1540 -798 -213 -44 -347 -56 -634 -56 -456 -1 -755 47 -1120 181
-597 220 -1172 641 -1549 1133 -205 269 -344 507 -456 785 -104 258 -155 439
-202 725 -26 156 -27 184 -28 500 0 225 4 364 13 424 7 48 11 90 9 93 -3 2 -7
-11 -11 -29z m7004 -1238 c0 -5 -4 -10 -10 -10 -5 0 -10 5 -10 10 0 6 5 10 10
10 6 0 10 -4 10 -10z m-6633 -2127 c-3 -10 -5 -2 -5 17 0 19 2 27 5 18 2 -10
2 -26 0 -35z m-74 -14 c20 -5 37 -14 37 -20 0 -6 -5 -7 -11 -4 -11 7 -92 -3
-287 -35 -62 -11 -119 -17 -126 -14 -7 3 -16 -2 -19 -10 -3 -8 -18 -15 -34
-14 -15 0 -59 -7 -96 -16 -37 -9 -73 -14 -79 -10 -15 9 78 53 112 54 14 0 36
7 48 16 14 10 33 14 47 10 13 -3 26 -2 29 3 5 8 113 35 176 45 54 8 167 5 203
-5z m91 -48 c-3 -9 -10 -29 -14 -46 l-8 -30 -1 33 c-1 36 -11 38 -86 22 -35
-7 -37 -9 -17 -15 23 -8 31 -35 10 -35 -7 0 -35 6 -63 13 -35 9 -44 15 -32 20
9 3 17 13 17 21 0 15 76 30 158 32 36 1 42 -2 36 -15z m-430 -156 c20 -21 10
-45 -19 -45 -13 0 -30 -3 -39 -6 -25 -9 -20 25 7 47 27 23 32 23 51 4z m-114
-109 c0 -2 -11 -11 -25 -20 -20 -13 -23 -13 -19 -2 3 8 13 17 22 19 10 3 18 5
20 6 1 0 2 -1 2 -3z m-57 -96 c19 -1 20 -2 6 -13 -9 -7 -16 -16 -16 -22 0 -13
-30 -31 -39 -23 -3 4 0 24 7 45 7 21 14 32 16 26 3 -7 14 -13 26 -13z m6043 3
c-3 -4 -21 -12 -39 -18 -67 -25 -193 -74 -229 -89 -22 -9 -38 -12 -38 -6 0 5
6 10 13 10 23 0 98 40 104 55 3 8 9 15 15 15 5 0 6 -4 3 -10 -3 -5 -1 -10 4
-10 6 0 11 5 11 12 0 6 2 9 6 6 3 -3 35 5 72 18 69 24 90 29 78 17z m-6166
-78 c-7 -8 -17 -12 -22 -9 -6 4 -5 10 3 15 22 14 33 10 19 -6z m6186 -50 c11
-34 11 -35 -7 -19 -11 10 -19 25 -19 36 0 30 14 21 26 -17z m-431 -35 c-3 -5
-12 -10 -18 -10 -7 0 -6 4 3 10 19 12 23 12 15 0z m-5485 -150 c0 -5 -4 -10
-10 -10 -5 0 -10 5 -10 10 0 6 5 10 10 10 6 0 10 -4 10 -10z m-1130 -1381 c0
-5 -4 -9 -10 -9 -5 0 -10 7 -10 16 0 8 5 12 10 9 6 -3 10 -10 10 -16z m6904
12 c10 -15 -35 -21 -166 -21 -116 0 -149 6 -131 24 10 9 291 7 297 -3z"/>
<path d="M8391 5554 c0 -11 3 -14 6 -6 3 7 2 16 -1 19 -3 4 -6 -2 -5 -13z"/>
<path d="M3191 5534 c0 -11 3 -14 6 -6 3 7 2 16 -1 19 -3 4 -6 -2 -5 -13z"/>
<path d="M8399 5513 c0 -10 -2 -30 -4 -45 -2 -19 1 -28 11 -28 9 0 14 11 14
29 0 16 5 31 12 33 15 5 1 28 -18 28 -8 0 -14 -8 -15 -17z"/>
<path d="M3191 5478 c-1 -29 2 -36 14 -32 16 7 21 24 6 24 -5 0 -12 10 -14 23
-3 14 -5 8 -6 -15z"/>
<path d="M6743 5345 c0 -33 2 -45 4 -27 2 18 2 45 0 60 -2 15 -4 0 -4 -33z"/>
<path d="M6808 5393 c6 -2 18 -2 25 0 6 3 1 5 -13 5 -14 0 -19 -2 -12 -5z"/>
<path d="M3770 5226 c0 -2 7 -6 15 -10 8 -3 15 -1 15 4 0 6 -7 10 -15 10 -8 0
-15 -2 -15 -4z"/>
<path d="M1640 5056 c0 -40 -3 -45 -32 -57 l-32 -13 32 -8 c40 -11 41 -27 2
-34 -28 -6 -43 -24 -20 -24 6 0 10 -18 10 -40 0 -29 -4 -40 -15 -40 -9 0 -15
-9 -15 -21 0 -12 -8 -23 -20 -26 -11 -3 -20 -10 -20 -15 0 -6 7 -8 15 -4 8 3
15 1 15 -3 0 -5 19 -13 43 -17 38 -7 40 -8 17 -15 -14 -4 -39 -7 -55 -8 l-30
-1 -3 -132 c-4 -167 -9 -198 -32 -198 -14 0 -19 -10 -22 -45 l-3 -45 97 0 98
0 0 379 c0 209 -3 386 -6 395 -12 30 -24 16 -24 -28z"/>
<path d="M1495 4550 c-19 -8 -19 -9 3 -9 12 -1 22 4 22 9 0 6 -1 10 -2 9 -2 0
-12 -4 -23 -9z"/>
<path d="M10158 4313 c18 -2 45 -2 60 0 15 2 0 4 -33 4 -33 0 -45 -2 -27 -4z"/>
<path d="M8390 4054 l0 -236 163 6 c89 3 180 6 202 6 l40 0 -3 90 c-3 88 -4
90 -28 90 -13 0 -24 5 -24 10 0 6 11 10 25 10 l25 0 0 110 c0 98 -2 110 -17
111 -15 0 -15 2 2 9 17 6 15 8 -15 13 -19 3 -110 9 -202 12 l-168 5 0 -236z"/>
<path d="M1410 4270 c0 -5 7 -10 15 -10 8 0 15 5 15 10 0 6 -7 10 -15 10 -8 0
-15 -4 -15 -10z"/>
<path d="M1471 4063 c-1 -120 -5 -221 -7 -225 -3 -4 25 -8 63 -8 37 0 85 -3
106 -6 l37 -7 0 232 0 231 -98 0 -98 0 -3 -217z"/>
<path d="M3466 4234 c-48 -53 -52 -70 -24 -109 l25 -35 -28 -188 c-49 -318
-50 -281 11 -356 28 -36 53 -66 54 -66 1 0 26 29 54 64 l52 63 -34 249 c-33
244 -33 249 -15 270 11 11 19 29 19 40 0 22 -61 94 -78 94 -6 0 -22 -12 -36
-26z"/>
<path d="M1410 4060 c0 -11 7 -20 15 -20 8 0 15 9 15 20 0 11 -7 20 -15 20 -8
0 -15 -9 -15 -20z"/>
<path d="M1408 3915 c-3 -79 -2 -85 17 -85 19 0 20 6 17 85 -3 63 -7 85 -17
85 -10 0 -14 -22 -17 -85z"/>
<path d="M10173 3833 c15 -2 37 -2 50 0 12 2 0 4 -28 4 -27 0 -38 -2 -22 -4z"/>
<path d="M1558 3793 l-87 -4 6 -122 c3 -67 10 -130 15 -139 6 -13 21 -18 48
-18 22 0 40 -3 40 -6 0 -16 -38 -33 -72 -34 -27 0 -38 -4 -38 -15 0 -9 9 -15
25 -15 18 0 25 -5 25 -20 0 -13 -7 -20 -19 -20 -15 0 -20 -9 -23 -47 -4 -48 6
-67 29 -58 7 2 15 -5 18 -16 6 -19 35 -27 35 -9 0 6 9 10 20 10 26 0 26 -18 0
-22 -12 -2 -21 -6 -20 -10 0 -5 0 -35 0 -68 l0 -60 40 0 c34 0 40 -3 41 -22
15 -250 16 -250 17 13 1 146 5 361 9 477 5 179 4 212 -8 210 -8 -1 -53 -4
-101 -5z"/>
<path d="M8390 3588 c0 -118 3 -385 7 -594 7 -357 8 -372 18 -259 7 83 14 120
23 121 6 1 17 2 22 3 6 0 10 15 10 31 0 20 5 30 15 30 12 0 15 14 15 64 0 66
11 83 45 70 8 -4 16 -5 16 -3 1 2 7 105 13 229 l12 225 8 -212 c4 -117 12
-213 17 -213 5 0 9 27 9 60 l0 60 50 0 c47 0 50 2 50 25 0 18 -5 25 -20 25
-11 0 -20 6 -20 14 0 8 -6 17 -12 20 -10 5 -10 7 0 12 7 3 12 25 12 55 0 42 3
49 20 49 16 0 19 -8 22 -57 3 -54 5 -58 29 -61 20 -2 28 2 33 20 10 38 7 58
-9 58 -8 0 -15 9 -15 20 0 11 7 20 15 20 8 0 15 9 15 20 0 11 -7 20 -15 20 -8
0 -15 9 -15 20 0 11 -6 21 -12 21 -7 1 -20 3 -28 4 -8 1 -35 3 -60 4 -63 2
-32 18 49 25 35 3 67 8 70 12 3 3 8 64 11 135 l5 129 -66 0 c-36 0 -127 3
-202 7 l-137 6 0 -215z m250 -338 c0 -5 -4 -10 -10 -10 -5 0 -10 5 -10 10 0 6
5 10 10 10 6 0 10 -4 10 -10z"/>
<path d="M8828 3783 c6 -2 18 -2 25 0 6 3 1 5 -13 5 -14 0 -19 -2 -12 -5z"/>
<path d="M1408 3768 c9 -9 15 -9 24 0 9 9 7 12 -12 12 -19 0 -21 -3 -12 -12z"/>
<path d="M573 3640 c0 -25 2 -35 4 -22 2 12 2 32 0 45 -2 12 -4 2 -4 -23z"/>
<path d="M1488 3243 c6 -2 18 -2 25 0 6 3 1 5 -13 5 -14 0 -19 -2 -12 -5z"/>
<path d="M8520 3018 c-3 -40 -5 -137 -2 -120 2 14 10 22 23 22 16 0 19 7 19
40 0 22 1 43 3 48 1 4 -8 8 -20 10 -13 2 -23 2 -23 0z"/>
<path d="M70 2961 c0 -6 4 -13 10 -16 6 -3 7 1 4 9 -7 18 -14 21 -14 7z"/>
<path d="M240 2674 c0 -6 7 -19 16 -30 14 -18 14 -18 3 6 -14 31 -19 36 -19
24z"/>
<path d="M8351 2574 c0 -11 3 -14 6 -6 3 7 2 16 -1 19 -3 4 -6 -2 -5 -13z"/>
<path d="M10061 2565 c-82 -23 -140 -70 -180 -146 -30 -59 -33 -70 -29 -134 8
-122 70 -219 171 -269 57 -29 94 -36 62 -12 -11 8 -23 12 -27 10 -4 -2 -9 0
-13 6 -4 6 6 10 24 10 21 0 34 7 42 22 11 21 12 21 25 3 13 -18 15 -18 37 3
13 12 33 22 45 22 l22 0 0 239 c0 153 -4 242 -10 246 -23 14 -118 14 -169 0z"/>
<path d="M9396 2464 c-3 -9 -6 -23 -6 -32 0 -9 -6 -28 -13 -42 -8 -14 -17 -68
-21 -120 -9 -104 -23 -324 -21 -327 1 -1 58 -6 128 -9 69 -4 124 -11 121 -16
-3 -4 -49 -8 -102 -8 -67 0 -106 -5 -126 -15 -24 -13 -31 -13 -37 -3 -7 11
-12 11 -29 0 -41 -25 -67 22 -187 348 -25 69 -51 131 -59 139 -10 11 -25 9
-91 -18 -43 -18 -109 -47 -148 -66 -38 -18 -139 -60 -223 -94 -84 -34 -174
-72 -200 -85 -65 -32 -286 -126 -298 -126 -6 0 -26 -13 -44 -30 -18 -16 -29
-30 -23 -30 6 0 97 36 202 80 106 44 197 80 202 80 5 0 9 -7 9 -15 0 -9 7 -18
15 -21 8 -4 15 -13 15 -21 0 -9 -6 -13 -15 -9 -19 7 -19 9 10 -58 14 -31 25
-64 25 -73 0 -16 1 -16 17 -1 15 16 15 21 -5 72 -12 31 -18 57 -14 59 4 3 25
10 47 17 22 7 126 50 230 95 105 45 199 85 211 89 19 6 25 -3 59 -91 20 -54
50 -133 67 -175 l29 -78 54 0 c70 0 105 -16 112 -52 3 -15 11 -28 18 -28 26 0
64 -42 71 -78 4 -20 15 -58 24 -83 10 -25 21 -67 25 -94 4 -26 14 -59 21 -74
7 -14 11 -27 9 -29 -8 -8 -25 10 -25 25 0 9 -7 24 -16 34 -9 10 -17 31 -19 46
-2 26 -10 61 -22 106 -2 9 -9 15 -14 11 -6 -3 -9 2 -7 11 5 30 -17 27 -35 -5
-21 -34 -37 -39 -37 -10 0 21 3 21 -100 1 -30 -6 -36 -11 -41 -41 l-5 -35 -8
28 c-5 15 -11 27 -15 27 -3 0 -55 -5 -115 -10 -87 -9 -111 -8 -118 2 -6 10
-10 10 -17 -2 -7 -10 -32 -15 -83 -17 -130 -5 -411 -23 -415 -27 -3 -2 13 -7
35 -11 49 -8 140 -86 188 -162 26 -39 49 -60 96 -87 101 -55 133 -61 195 -37
42 16 52 18 57 6 3 -9 -3 -15 -17 -18 -23 -4 -20 -6 38 -23 37 -12 59 -53 60
-117 l2 -47 -74 0 c-59 0 -79 -4 -101 -20 -45 -34 -99 -19 -166 44 -30 28 -66
61 -80 73 -31 26 -36 49 -7 33 52 -27 35 -1 -27 41 -73 50 -142 38 -142 -25 0
-16 7 -27 21 -31 18 -6 7 -15 -64 -53 -48 -25 -85 -47 -83 -49 2 -2 43 10 91
27 132 45 130 45 139 -50 l5 -55 -70 -39 c-39 -21 -69 -40 -67 -42 2 -2 44 8
93 21 79 22 87 22 66 6 -13 -10 -66 -40 -117 -66 -52 -27 -94 -50 -94 -51 0
-1 56 17 125 41 162 56 181 60 200 41 8 -8 15 -17 15 -20 0 -4 -30 -21 -67
-40 -57 -28 -140 -75 -203 -115 -8 -5 43 10 114 35 131 45 174 53 114 22 -169
-89 -208 -111 -205 -115 3 -2 49 13 103 33 87 32 161 56 216 69 10 2 15 -1 12
-8 -2 -7 10 -28 26 -47 22 -25 29 -42 25 -57 -4 -18 -1 -23 16 -23 14 0 19 -5
16 -13 -3 -8 8 -27 23 -44 l29 -30 -139 -69 c-142 -69 -175 -92 -79 -53 75 30
241 89 250 89 4 0 9 -9 12 -20 3 -14 14 -20 31 -20 23 0 26 -3 20 -26 -6 -25
-5 -26 25 -22 57 8 29 -15 -92 -76 -64 -33 -115 -62 -112 -64 5 -6 45 9 158
60 49 22 91 38 93 35 3 -3 -26 -22 -66 -42 -39 -21 -68 -40 -66 -43 3 -2 52
12 110 32 57 20 110 36 116 36 13 0 81 -49 93 -67 11 -17 27 -16 27 1 0 8 15
24 33 35 45 27 75 61 56 61 -8 0 -22 12 -32 26 -23 31 -18 54 6 30 9 -10 17
-14 17 -11 0 4 12 0 26 -9 14 -10 31 -15 37 -12 7 2 4 5 -5 5 -11 1 -18 9 -18
21 0 11 -4 20 -10 20 -5 0 -12 11 -16 25 -3 14 -10 25 -16 25 -14 0 -3 101 13
112 9 6 10 11 3 14 -6 3 -9 15 -7 27 3 17 -4 26 -31 41 -20 11 -36 28 -38 40
-5 36 -32 29 -117 -34 -156 -116 -124 -82 320 335 41 39 91 90 113 114 l39 44
5 114 5 115 -84 -2 c-109 -3 -109 -3 -109 15 0 12 17 15 95 15 l95 0 0 215 c0
134 4 215 10 215 6 0 11 -84 12 -217 3 -185 5 -218 18 -219 8 -1 53 -3 100 -4
106 -3 72 -18 -44 -19 l-78 -1 3 -140 c2 -77 6 -140 9 -140 3 0 19 -12 36 -27
16 -16 89 -81 161 -146 l131 -117 84 51 c45 29 95 59 111 66 l27 14 0 321 c0
271 -2 319 -14 315 -8 -3 -45 -25 -83 -48 -109 -67 -155 -91 -164 -82 -4 4
-32 51 -62 103 -110 193 -229 395 -242 410 -7 8 -67 108 -135 223 -67 114
-126 207 -130 207 -4 0 -11 -7 -14 -16z m-50 -604 c8 0 14 -9 14 -20 0 -13 7
-20 18 -20 14 0 19 -8 20 -32 1 -26 -1 -29 -9 -16 -5 9 -21 19 -37 23 -30 7
-67 49 -57 66 4 6 14 8 22 5 8 -3 21 -6 29 -6z m-351 -256 c-48 -8 -115 -9
-115 -2 0 5 30 7 68 7 37 -1 58 -3 47 -5z m-177 -10 c-4 -3 -27 -6 -53 -6 -26
0 -49 3 -52 6 -4 3 20 6 52 6 32 0 56 -3 53 -6z m540 -7 c9 -11 14 -117 5
-117 -1 0 -11 7 -21 16 -13 11 -17 24 -13 47 4 31 5 31 12 7 6 -22 7 -23 8 -4
1 12 -6 27 -14 34 -8 7 -15 16 -15 21 0 14 26 11 38 -4z m-695 -4 c-23 -2 -64
-2 -90 0 -26 2 -7 3 42 3 50 0 71 -1 48 -3z m601 -2 c8 -13 -12 -26 -69 -45
-39 -12 -62 -14 -99 -7 -70 13 -79 28 -20 35 27 4 72 10 99 15 71 12 83 12 89
2z m225 -236 c0 -5 -5 -1 -11 10 -6 11 -17 25 -25 32 -10 7 -13 19 -9 30 6 15
11 11 26 -22 11 -22 19 -44 19 -50z m135 -120 c-22 -17 -34 -19 -34 -6 0 5 8
12 18 14 32 9 36 7 16 -8z m486 -233 c-6 -2 -10 -11 -11 -20 0 -14 -2 -13 -9
3 l-9 20 0 -20 c-1 -23 -53 -56 -71 -45 -7 4 -9 13 -5 20 5 7 4 11 -1 8 -5 -3
-16 4 -25 16 l-17 22 79 -1 c43 0 74 -1 69 -3z m-851 -304 c1 -5 -3 -8 -8 -8
-11 0 -21 37 -13 45 6 5 20 -19 21 -37z"/>
<path d="M9305 1850 c-3 -5 -1 -10 4 -10 6 0 11 5 11 10 0 6 -2 10 -4 10 -3 0
-8 -4 -11 -10z"/>
<path d="M1592 2395 c9 -10 21 -16 28 -13 7 2 -1 10 -16 17 -27 12 -28 11 -12
-4z"/>
<path d="M1335 2361 c-95 -51 -213 -127 -254 -165 -78 -71 -75 -68 -57 -78 22
-12 37 -3 199 118 104 79 151 108 196 121 57 17 58 18 33 30 -33 18 -38 17
-117 -26z"/>
<path d="M655 2044 c-26 -40 -20 -54 23 -47 39 6 52 17 52 44 0 11 -11 18 -30
21 -23 4 -33 -1 -45 -18z"/>
<path d="M10125 1990 c-4 -6 11 -10 36 -10 48 0 49 4 2 13 -18 4 -35 2 -38 -3z"/>
<path d="M3139 1916 c-3 -3 -620 -16 -762 -16 l-39 0 4 -200 3 -200 407 0 408
0 0 210 c0 185 -4 221 -21 206z"/>
<path d="M7638 1865 c-2 -20 0 -39 5 -42 6 -3 7 -1 3 5 -3 5 -2 12 3 14 14 5
18 51 5 55 -7 2 -13 -11 -16 -32z"/>
<path d="M8610 1799 c-25 -10 -61 -18 -81 -17 -22 1 -45 -5 -61 -17 -14 -11
-66 -40 -116 -65 -50 -25 -91 -49 -91 -54 -1 -5 7 -15 17 -22 24 -18 7 -31
-50 -39 -49 -7 -68 7 -27 20 11 4 19 9 16 11 -4 5 -100 -35 -221 -91 -144 -66
-207 -97 -203 -101 6 -6 90 28 119 48 30 21 229 88 260 88 12 0 16 -4 12 -11
-10 -18 117 -1 136 17 12 12 12 14 -8 14 -12 0 -22 5 -22 10 0 6 17 10 38 10
21 0 42 4 48 10 5 5 113 17 239 26 249 17 383 30 325 33 l-35 2 28 15 c15 8
27 19 27 23 0 13 -60 35 -191 69 -21 5 -47 17 -60 26 -29 20 -42 19 -99 -5z
m-383 -245 c-3 -3 -12 -4 -19 -1 -8 3 -5 6 6 6 11 1 17 -2 13 -5z"/>
<path d="M9264 1747 c-7 -20 3 -37 22 -37 18 0 18 24 -1 40 -12 10 -16 9 -21
-3z"/>
<path d="M9083 1673 c9 -2 23 -2 30 0 6 3 -1 5 -18 5 -16 0 -22 -2 -12 -5z"/>
<path d="M442 1654 c-7 -8 -8 -14 -3 -14 10 0 25 19 20 25 -2 1 -10 -3 -17
-11z"/>
<path d="M161 1516 c2 -2 15 -9 29 -15 24 -11 24 -11 6 3 -16 13 -49 24 -35
12z"/>
<path d="M5078 1470 c-1 -5 -2 -311 0 -680 l2 -670 698 0 c635 0 770 -5 700
-23 -12 -4 -332 -7 -710 -7 l-688 0 0 -45 0 -45 774 0 773 0 -31 33 c-59 63
-89 133 -94 220 -6 105 10 170 56 232 40 54 120 113 163 122 l26 5 6 171 c3
95 6 287 6 428 l0 256 -541 6 c-779 10 -1136 9 -1140 -3z m1662 -792 c0 -45
-3 -59 -10 -48 -6 10 -10 11 -10 3 0 -7 -7 -13 -15 -13 -9 0 -25 -9 -37 -19
-25 -24 -56 -18 -33 6 9 8 13 19 10 24 -4 5 6 9 22 9 40 0 50 10 58 58 4 23 9
42 11 42 2 0 4 -28 4 -62z m-153 -136 c-22 -22 -25 -23 -23 -6 2 10 9 18 16
16 6 -1 14 8 18 20 3 14 7 17 10 9 2 -7 -7 -25 -21 -39z"/>
<path d="M2348 1462 c-2 -4 -3 -36 -2 -72 3 -207 6 -304 9 -295 2 6 6 22 9 38
7 31 36 37 36 7 0 -17 7 -20 40 -20 40 0 40 0 40 -37 0 -21 5 -45 10 -53 6
-10 10 -11 10 -2 0 19 18 14 25 -8 5 -17 15 -20 61 -20 30 0 54 -4 54 -9 0 -5
18 -7 40 -4 26 4 40 2 40 -6 0 -6 -9 -11 -20 -11 -11 0 -20 -4 -20 -9 0 -5 18
-7 40 -5 35 4 40 2 40 -16 0 -14 7 -20 21 -20 16 0 20 -5 17 -27 -3 -24 1 -28
25 -31 15 -2 25 -8 22 -13 -4 -5 3 -9 13 -9 23 0 40 -59 21 -71 -8 -5 -5 -10
8 -18 11 -5 23 -7 27 -4 3 3 6 1 6 -5 0 -7 7 -12 15 -12 19 0 19 -19 1 -56 -8
-16 -38 -87 -66 -159 -29 -72 -92 -217 -140 -322 l-88 -193 259 0 259 0 0 45
0 45 -231 0 c-205 0 -230 2 -219 15 10 12 49 15 229 15 l216 0 3 675 3 675
-405 -1 c-223 0 -407 -3 -408 -7z m80 -222 c6 0 12 -4 12 -9 0 -12 -62 -23
-73 -12 -15 15 3 33 27 27 11 -3 27 -6 34 -6z m88 -17 c-10 -10 -19 5 -10 18
6 11 8 11 12 0 2 -7 1 -15 -2 -18z m0 -101 c-13 -12 -17 8 -9 44 l8 39 3 -39
c2 -21 1 -41 -2 -44z m404 -331 c0 -19 -12 -41 -20 -36 -10 6 -1 45 11 45 5 0
9 -4 9 -9z"/>
<path d="M3180 833 c0 -351 3 -655 6 -675 l7 -38 308 0 309 0 0 675 0 675
-315 0 -315 0 0 -637z"/>
<path d="M8345 1425 c37 -68 49 -78 41 -36 -3 18 -6 37 -6 42 0 5 -5 9 -12 9
-6 0 -20 8 -31 18 -15 13 -13 6 8 -33z"/>
<path d="M8351 1264 c-19 -8 -32 -16 -30 -19 8 -7 79 17 79 27 0 11 -9 10 -49
-8z"/>
<path d="M1930 1186 c0 -2 7 -7 16 -10 8 -3 12 -2 9 4 -6 10 -25 14 -25 6z"/>
<path d="M2351 1064 c0 -11 3 -14 6 -6 3 7 2 16 -1 19 -3 4 -6 -2 -5 -13z"/>
<path d="M2450 956 c0 -3 9 -10 20 -16 11 -6 20 -8 20 -6 0 3 -9 10 -20 16
-11 6 -20 8 -20 6z"/>
<path d="M2760 890 c0 -5 5 -10 10 -10 6 0 10 5 10 10 0 6 -4 10 -10 10 -5 0
-10 -4 -10 -10z"/>
<path d="M6820 790 c0 -5 5 -10 10 -10 6 0 10 5 10 10 0 6 -4 10 -10 10 -5 0
-10 -4 -10 -10z"/>
<path d="M6803 623 c9 -2 23 -2 30 0 6 3 -1 5 -18 5 -16 0 -22 -2 -12 -5z"/>
<path d="M9301 293 c7 -12 15 -20 18 -17 3 2 -3 12 -13 22 -17 16 -18 16 -5
-5z"/>
<path d="M9330 263 c0 -5 7 -18 15 -29 8 -10 15 -25 15 -32 0 -8 -70 -47 -157
-88 -231 -110 -239 -114 -226 -114 6 0 49 17 95 39 117 54 306 123 318 116 14
-9 50 -81 50 -100 0 -8 7 -15 15 -15 8 0 15 -9 15 -20 0 -15 7 -20 25 -20 14
0 25 3 25 8 0 4 -24 44 -53 88 -52 82 -137 185 -137 167z"/>
<path d="M6713 80 l34 -75 97 -3 c84 -2 96 -1 96 14 0 9 14 44 31 78 29 57 29
59 7 39 -73 -69 -203 -69 -276 0 -20 19 -19 14 11 -53z"/>
<path d="M3180 45 l0 -45 315 0 315 0 0 45 0 45 -315 0 -315 0 0 -45z"/>
<path d="M3840 45 l0 -45 605 0 605 0 0 45 0 45 -605 0 -605 0 0 -45z"/>
</g>
</svg>
