<?xml version="1.0" standalone="no"?>
<!DOCTYPE svg PUBLIC "-//W3C//DTD SVG 20010904//EN"
 "http://www.w3.org/TR/2001/REC-SVG-20010904/DTD/svg10.dtd">
<svg version="1.0" xmlns="http://www.w3.org/2000/svg"
 width="1024.000000pt" height="1024.000000pt" viewBox="0 0 1024.000000 1024.000000"
 preserveAspectRatio="xMidYMid meet">

<g transform="translate(0.000000,1024.000000) scale(0.100000,-0.100000)"
fill="#000000" stroke="none">
<path d="M0 5120 l0 -5120 5120 0 5120 0 0 5120 0 5120 -5120 0 -5120 0 0
-5120z m5465 2954 c433 -51 849 -198 1253 -440 258 -155 430 -290 637 -498
396 -398 648 -843 789 -1394 58 -223 76 -372 83 -652 11 -488 -63 -899 -238
-1308 -245 -574 -622 -1018 -1169 -1377 -402 -265 -822 -431 -1255 -496 -200
-30 -587 -37 -780 -14 -250 29 -545 102 -765 188 -337 132 -742 379 -997 609
-189 171 -420 442 -556 653 -157 245 -311 603 -386 902 -93 366 -117 842 -61
1207 103 679 457 1331 977 1801 391 354 913 634 1405 754 346 85 709 107 1063
65z"/>
<path d="M4730 7900 c-169 -26 -438 -96 -464 -120 -5 -5 2 -31 15 -60 17 -37
27 -49 38 -45 9 4 66 19 126 35 139 36 294 59 461 68 l129 7 3 68 3 67 -98 -1
c-54 0 -150 -9 -213 -19z"/>
<path d="M5200 7855 c0 -55 3 -65 18 -65 46 0 268 -22 358 -35 475 -68 971
-308 1399 -676 50 -42 106 -93 125 -113 l34 -36 43 42 43 42 -42 44 c-115 119
-395 335 -558 431 -319 188 -614 305 -961 380 -115 25 -322 51 -401 51 l-58 0
0 -65z"/>
<path d="M3935 7656 c-335 -152 -585 -318 -874 -583 l-65 -59 45 -41 44 -42
55 53 c249 240 562 445 905 591 61 26 111 48 113 50 6 6 -60 95 -71 95 -7 -1
-75 -29 -152 -64z"/>
<path d="M4940 7441 l0 -100 -53 2 c-104 4 -137 -39 -137 -178 0 -134 31 -175
132 -175 l57 0 3 -82 3 -83 176 -3 176 -2 7 46 c3 26 6 64 6 85 l0 39 58 0
c100 0 122 35 122 193 0 85 -1 88 -33 124 -29 31 -41 37 -90 41 l-56 4 -3 92
-3 91 -182 3 -183 2 0 -99z m268 -102 c3 -99 2 -99 105 -99 l57 0 0 -75 0 -75
-80 0 -80 0 0 -85 0 -85 -85 0 -85 0 0 85 0 85 -85 0 -86 0 3 78 3 77 83 0 82
-1 0 87 c0 60 4 89 13 93 6 2 44 4 82 3 l70 -2 3 -86z"/>
<path d="M4315 7466 c-389 -130 -678 -311 -940 -589 -100 -104 -134 -151 -122
-163 3 -4 83 65 177 151 l172 158 304 -305 305 -304 -73 -54 c-148 -108 -343
-321 -462 -506 l-40 -61 -343 344 -343 344 -57 -88 c-31 -48 -94 -160 -139
-249 -106 -209 -169 -397 -208 -626 l-7 -38 477 0 c447 0 476 -1 470 -17 -4
-10 -17 -69 -28 -133 -16 -89 -21 -159 -22 -310 0 -107 3 -212 7 -232 l8 -38
-465 0 -465 0 5 -52 c21 -209 79 -456 153 -652 46 -122 153 -335 224 -444 l46
-72 68 73 c37 39 193 201 348 358 l280 285 44 -70 c113 -180 277 -357 450
-486 55 -41 99 -78 98 -82 -1 -3 -101 -109 -222 -235 -121 -125 -263 -273
-317 -329 l-97 -101 -81 70 c-74 63 -110 79 -110 48 0 -18 117 -123 238 -214
151 -113 449 -264 665 -337 l147 -49 0 519 c0 286 1 520 3 520 2 0 49 -16 105
-35 139 -49 262 -73 425 -86 266 -20 511 17 769 116 15 6 16 -32 17 -511 1
-285 3 -519 4 -521 6 -5 172 49 257 84 111 46 306 144 389 196 100 62 280 199
334 254 42 44 46 51 33 63 -14 11 -26 4 -80 -44 -35 -31 -69 -56 -74 -56 -11
0 -642 639 -642 649 0 4 28 25 63 48 141 93 336 294 455 471 l76 113 244 -243
c265 -264 373 -375 419 -427 l29 -33 53 78 c119 178 237 458 300 716 23 92 71
373 71 413 0 3 -208 5 -461 5 l-461 0 6 28 c3 15 11 78 18 141 14 136 1 302
-36 454 -13 53 -21 99 -18 102 3 3 214 5 469 5 434 0 463 1 463 18 0 9 -11 64
-25 122 -85 352 -243 680 -442 917 -18 21 -18 21 -278 -250 -284 -295 -386
-399 -389 -395 -2 2 -36 44 -76 93 -145 176 -375 385 -530 481 l-56 34 75 78
c42 42 137 140 211 217 74 77 184 191 244 252 60 62 108 115 105 117 -36 37
-293 176 -426 232 -115 48 -297 114 -316 114 -9 0 -11 -124 -9 -486 3 -467 3
-486 -15 -479 -79 34 -197 71 -298 93 -108 23 -142 26 -340 26 -195 1 -233 -2
-330 -23 -60 -12 -152 -39 -205 -58 -52 -18 -103 -37 -112 -40 -17 -5 -18 22
-18 481 0 267 -3 486 -7 486 -5 -1 -66 -20 -138 -44z m-110 -202 c25 -25 16
-75 -17 -94 -25 -13 -31 -13 -55 0 -38 21 -44 71 -11 94 29 21 62 20 83 0z
m1904 -60 c12 -15 21 -33 21 -41 0 -21 -46 -63 -70 -63 -27 0 -70 43 -70 70 0
56 83 80 119 34z m-1901 -176 c17 -15 15 -58 -5 -80 -21 -24 -58 -23 -83 2
-57 57 24 128 88 78z m1900 -71 c8 -6 12 -25 10 -46 -6 -67 -92 -83 -118 -22
-26 65 51 114 108 68z m-1906 -174 c22 -20 23 -56 2 -77 -33 -34 -104 -8 -104
37 0 49 64 75 102 40z m1167 -258 c346 -61 605 -197 851 -444 148 -149 231
-263 311 -426 101 -207 143 -392 142 -630 -1 -304 -76 -550 -251 -815 -188
-287 -414 -468 -749 -601 -509 -202 -1113 -102 -1544 257 -348 290 -538 661
-556 1089 -12 291 42 522 183 780 150 274 390 502 681 649 139 69 346 133 508
155 91 13 317 5 424 -14z m1851 -376 c25 -11 64 -39 88 -62 99 -97 90 -264
-20 -363 -54 -49 -101 -66 -178 -67 -106 -2 -193 51 -242 146 -26 52 -28 154
-3 213 53 127 225 192 355 133z m-4008 -236 c22 -20 23 -41 1 -65 -15 -16 -35
-18 -211 -18 -168 0 -198 2 -214 17 -23 21 -23 38 2 63 19 19 33 20 212 20
164 0 194 -2 210 -17z m198 -176 c30 -15 35 -36 17 -61 -13 -18 -33 -20 -243
-24 -215 -4 -230 -3 -253 15 -28 23 -22 59 12 73 36 14 438 12 467 -3z m3746
-1227 l64 0 0 -80 0 -80 79 0 c44 0 82 -3 84 -7 3 -5 3 -50 0 -100 l-6 -93
-78 0 -79 0 0 -80 0 -80 -95 0 -95 0 0 85 0 85 -85 0 -85 0 0 95 0 95 85 0 85
0 0 86 0 87 31 -7 c17 -3 60 -6 95 -6z m-3738 -52 c17 -17 15 -48 -5 -70 -15
-17 -38 -18 -306 -18 -256 0 -293 2 -309 17 -22 20 -23 41 -1 65 15 17 38 18
313 18 217 0 299 -3 308 -12z m-7 -178 c24 -13 25 -52 1 -73 -15 -14 -56 -16
-300 -17 -169 0 -290 3 -301 9 -20 11 -32 43 -22 58 19 29 54 32 324 33 173 0
286 -4 298 -10z m-166 -204 c16 -25 12 -51 -10 -60 -7 -2 -74 -6 -149 -7 -139
-2 -166 4 -166 39 0 8 7 24 17 34 14 16 33 18 154 18 135 0 139 -1 154 -24z
m2865 -755 c25 -47 -3 -101 -52 -101 -46 0 -75 72 -42 104 22 23 81 21 94 -3z
m-1901 -27 c25 -31 16 -63 -24 -83 -24 -12 -30 -11 -54 6 -33 25 -38 56 -12
82 29 29 65 27 90 -5z m-112 -200 c56 -36 76 -110 44 -161 -42 -67 -115 -89
-170 -51 -80 54 -90 133 -25 194 48 46 99 52 151 18z m2017 -10 c34 -34 2
-104 -48 -104 -45 0 -76 76 -44 108 17 17 74 15 92 -4z m-2 -241 c41 -37 7
-97 -53 -91 -24 2 -38 11 -48 29 -13 24 -13 29 2 53 21 31 70 36 99 9z"/>
<path d="M5053 6100 c-22 -5 -59 -18 -80 -28 -44 -23 -123 -103 -147 -150 -42
-82 -40 -207 5 -298 22 -44 103 -146 120 -152 5 -2 39 16 74 40 59 39 64 46
64 78 1 30 -4 37 -31 50 -83 39 -119 141 -76 215 46 79 134 107 214 69 116
-55 116 -220 1 -277 -22 -11 -37 -26 -37 -37 0 -16 8 -14 76 15 42 18 105 39
140 46 61 12 64 14 70 47 4 19 4 62 2 97 -15 186 -207 325 -395 285z"/>
<path d="M6041 5943 c-22 -3 -42 -15 -60 -36 -14 -17 -139 -145 -278 -284
l-252 -253 280 0 279 0 0 -290 0 -290 -283 0 -283 0 279 -280 279 -281 -24
-32 c-50 -65 -190 -167 -313 -228 -154 -75 -271 -110 -396 -116 l-97 -6 -5
-39 c-7 -50 -18 -62 -50 -55 -24 7 -47 43 -47 76 0 16 -12 19 -87 24 -175 12
-351 76 -528 191 -109 71 -211 168 -199 189 5 8 128 137 273 286 l263 271
-281 0 -281 0 0 290 0 290 282 0 282 0 -283 281 c-261 258 -286 280 -314 277
-38 -4 -63 -42 -53 -81 3 -14 71 -93 155 -179 l149 -153 -189 -3 -189 -2 0
-430 0 -430 197 0 197 0 -90 -92 c-167 -173 -234 -248 -234 -260 0 -15 -13 -1
-16 17 -1 8 3 15 9 15 7 0 5 5 -3 10 -8 5 -12 10 -8 10 4 0 -13 32 -38 71 -64
99 -122 227 -152 339 -22 83 -26 116 -26 265 -1 136 3 186 18 250 25 103 25
128 1 118 -14 -5 -14 -7 -1 -22 9 -10 11 -22 7 -31 -5 -8 -12 -33 -16 -55 -9
-50 -15 -61 -26 -44 -5 8 -6 -7 -3 -37 5 -42 4 -51 -10 -51 -10 0 -16 9 -16
24 0 16 -6 23 -20 23 -11 0 -20 -4 -20 -10 0 -5 -4 -10 -10 -10 -5 0 -10 23
-10 50 0 43 3 50 20 50 13 0 20 7 20 20 0 16 -7 20 -30 20 -17 0 -30 5 -31 13
-2 35 -28 -71 -39 -160 -31 -240 10 -469 130 -720 127 -268 341 -487 614 -629
202 -105 404 -154 634 -154 246 0 430 45 652 162 141 73 209 122 323 228 250
234 399 562 423 928 5 86 -15 294 -30 309 -2 3 -4 -27 -3 -65 1 -39 5 -68 10
-65 4 2 7 -13 7 -34 0 -28 -3 -34 -10 -23 -7 11 -10 6 -10 -21 0 -31 -4 -38
-25 -43 -16 -4 -25 -13 -25 -26 0 -17 -7 -20 -40 -20 l-40 0 2 78 c1 42 -1 83
-6 90 -4 6 -5 15 -3 20 3 4 1 16 -3 27 -4 10 -5 -54 -2 -143 7 -258 -36 -423
-175 -660 l-54 -92 -159 157 c-88 86 -160 161 -160 165 0 4 86 8 190 8 l190 0
0 430 0 430 -185 0 c-102 0 -185 4 -185 8 0 5 10 17 23 28 12 11 71 71 130
134 86 89 111 110 119 99 8 -11 9 -11 5 3 -3 9 1 22 9 28 18 16 18 80 -1 106
-8 12 -11 24 -8 28 3 3 4 5 2 4 -2 0 -19 -3 -38 -5z m-2261 -772 c0 -21 -20
-61 -30 -61 -7 0 -8 6 -2 16 5 9 7 25 5 35 -4 13 0 19 11 19 9 0 16 -4 16 -9z
m108 -107 c-3 -27 -4 -26 -9 8 -3 22 -1 34 4 29 5 -5 7 -21 5 -37z m2619 -16
c-3 -7 -5 -2 -5 12 0 14 2 19 5 13 2 -7 2 -19 0 -25z m-2760 -45 c-3 -10 -5
-4 -5 12 0 17 2 24 5 18 2 -7 2 -21 0 -30z m140 -15 c-3 -8 -6 -5 -6 6 -1 11
2 17 5 13 3 -3 4 -12 1 -19z m2470 -40 c-3 -8 -6 -5 -6 6 -1 11 2 17 5 13 3
-3 4 -12 1 -19z m143 -18 c0 -5 -2 -10 -4 -10 -3 0 -8 5 -11 10 -3 6 -1 10 4
10 6 0 11 -4 11 -10z m-150 -77 c-11 -17 -11 -17 -6 0 3 10 7 26 7 35 1 15 2
15 6 0 2 -10 -1 -25 -7 -35z m-2453 -15 c-3 -8 -6 -5 -6 6 -1 11 2 17 5 13 3
-3 4 -12 1 -19z"/>
<path d="M4059 5893 c-13 -16 -12 -17 4 -4 9 7 17 15 17 17 0 8 -8 3 -21 -13z"/>
<path d="M6195 5860 c10 -11 20 -20 23 -20 3 0 -3 9 -13 20 -10 11 -20 20 -23
20 -3 0 3 -9 13 -20z"/>
<path d="M6220 5826 c0 -2 8 -10 18 -17 15 -13 16 -12 3 4 -13 16 -21 21 -21
13z"/>
<path d="M3979 5789 c-21 -30 -21 -30 -1 -18 11 7 19 16 16 20 -2 4 4 12 13
18 10 6 13 11 6 11 -6 0 -22 -14 -34 -31z"/>
<path d="M4160 5755 c-7 -8 -17 -12 -23 -8 -6 4 -7 1 -3 -6 6 -9 13 -8 27 5
10 9 19 19 19 21 0 7 -8 2 -20 -12z"/>
<path d="M3940 5730 c-6 -11 -8 -20 -6 -20 3 0 10 9 16 20 6 11 8 20 6 20 -3
0 -10 -9 -16 -20z"/>
<path d="M6126 5699 c20 -23 24 -23 24 -5 0 7 -9 16 -21 19 -20 5 -20 5 -3
-14z"/>
<path d="M3945 5700 c-4 -6 -10 -8 -15 -5 -5 3 -11 1 -14 -4 -8 -13 22 -7 36
7 7 7 9 12 6 12 -4 0 -10 -5 -13 -10z"/>
<path d="M4103 5688 c-15 -20 -25 -38 -20 -38 3 0 12 11 21 25 17 26 16 35 -1
13z"/>
<path d="M6330 5671 c0 -6 4 -13 10 -16 6 -3 7 1 4 9 -7 18 -14 21 -14 7z"/>
<path d="M3891 5643 c-10 -26 -10 -27 4 -9 8 11 15 23 15 28 0 15 -7 8 -19
-19z"/>
<path d="M5346 5609 c-39 -11 -111 -40 -160 -64 -175 -84 -273 -162 -323 -257
-23 -44 -28 -65 -28 -129 1 -65 5 -85 33 -141 47 -96 185 -240 213 -222 5 3 9
56 9 118 0 107 -1 114 -25 136 -13 13 -32 42 -41 66 -31 81 15 149 162 239
114 70 159 109 204 177 37 55 51 99 33 97 -5 0 -39 -9 -77 -20z"/>
<path d="M6177 5613 c3 -7 9 -10 14 -7 14 8 11 21 -5 21 -8 0 -12 -6 -9 -14z"/>
<path d="M3863 5587 c-8 -17 -8 -24 0 -24 7 0 13 11 13 24 2 29 0 29 -13 0z"/>
<path d="M6366 5593 c-4 -9 -4 -14 0 -10 4 4 13 -1 21 -11 12 -15 13 -14 2 8
-16 33 -16 33 -23 13z"/>
<path d="M4015 5549 c-4 -6 -5 -12 -2 -15 2 -3 7 2 10 11 7 17 1 20 -8 4z"/>
<path d="M6410 5511 c0 -6 4 -13 10 -16 6 -3 7 1 4 9 -7 18 -14 21 -14 7z"/>
<path d="M3963 5442 l-2 -37 14 34 c18 40 18 41 3 41 -8 0 -14 -15 -15 -38z"/>
<path d="M3810 5459 c0 -5 5 -7 10 -4 6 3 10 8 10 11 0 2 -4 4 -10 4 -5 0 -10
-5 -10 -11z"/>
<path d="M3841 5415 c0 -48 3 -55 20 -55 16 0 19 7 19 55 0 48 -3 55 -19 55
-17 0 -20 -7 -20 -55z"/>
<path d="M3791 5408 c-2 -26 10 -48 25 -48 8 0 14 7 14 16 0 10 -6 14 -14 11
-10 -4 -16 2 -19 16 -3 14 -5 16 -6 5z"/>
<path d="M6451 5394 c0 -11 3 -14 6 -6 3 7 2 16 -1 19 -3 4 -6 -2 -5 -13z"/>
<path d="M6288 5378 c3 -13 7 -17 10 -10 2 7 8 10 13 6 5 -3 9 -3 9 0 0 3 -9
10 -19 15 -17 9 -18 8 -13 -11z"/>
<path d="M5260 5336 l-95 -51 -3 -75 -3 -75 46 45 c69 67 165 195 153 204 -2
2 -46 -20 -98 -48z"/>
<path d="M6310 5290 c0 -5 5 -10 11 -10 5 0 7 5 4 10 -3 6 -8 10 -11 10 -2 0
-4 -4 -4 -10z"/>
<path d="M6320 5255 c0 -8 9 -13 20 -12 11 1 20 4 20 8 0 4 -9 9 -20 12 -13 3
-20 0 -20 -8z"/>
<path d="M5160 4958 l0 -123 52 52 c74 75 69 123 -21 176 l-31 18 0 -123z"/>
<path d="M5305 4930 c-15 -50 -59 -93 -169 -165 -182 -120 -231 -183 -224
-285 4 -54 37 -137 73 -184 13 -18 16 -16 63 25 l50 44 -25 42 c-51 87 -33
119 134 244 51 38 104 86 118 107 30 44 32 99 6 157 -17 39 -18 39 -26 15z"/>
<path d="M5198 4592 l-38 -25 0 -84 c0 -80 1 -83 19 -73 27 14 31 13 30 -7 0
-10 -44 -52 -98 -94 -132 -103 -165 -172 -127 -263 18 -42 74 -106 94 -106 13
0 14 14 9 95 -6 112 -7 111 107 200 42 32 88 77 103 100 53 79 38 190 -34 256
l-28 26 -37 -25z"/>
<path d="M5193 4166 l-33 -21 0 -107 c0 -60 2 -108 5 -108 10 0 58 58 76 92
24 46 25 116 1 144 l-17 22 -32 -22z"/>
<path d="M7103 6128 c-5 -7 -11 -49 -12 -93 -1 -44 -7 -93 -13 -108 -9 -23 -8
-31 5 -44 20 -20 63 -10 72 17 7 21 132 120 153 120 15 0 16 12 0 28 -19 19
-33 15 -104 -35 l-67 -47 5 77 c6 86 -11 121 -39 85z"/>
<path d="M6920 6051 c0 -19 23 -35 34 -24 11 11 6 22 -14 33 -17 9 -20 8 -20
-9z"/>
<path d="M6875 5910 c-8 -13 4 -32 16 -25 12 8 12 35 0 35 -6 0 -13 -4 -16
-10z"/>
<path d="M7320 5905 c0 -9 5 -15 11 -13 6 2 11 8 11 13 0 5 -5 11 -11 13 -6 2
-11 -4 -11 -13z"/>
<path d="M6923 5784 c-7 -19 2 -28 22 -21 19 8 19 23 0 31 -9 3 -18 -1 -22
-10z"/>
<path d="M7254 5779 c-11 -18 13 -34 31 -19 8 7 15 16 15 21 0 13 -38 11 -46
-2z"/>
<path d="M6669 7023 c-14 -16 0 -32 156 -185 l172 -168 22 24 22 23 -118 115
c-133 130 -220 208 -232 208 -4 0 -14 -8 -22 -17z"/>
<path d="M7292 6857 l-43 -43 22 -20 c64 -58 263 -340 342 -484 110 -203 215
-486 262 -710 22 -105 55 -350 55 -412 0 -15 10 -18 60 -18 l60 0 0 43 c0 166
-71 518 -149 735 -122 341 -302 650 -533 915 l-33 38 -43 -44z"/>
<path d="M2816 6813 c-141 -164 -309 -433 -404 -646 -127 -285 -216 -626 -238
-905 l-7 -93 64 3 64 3 7 106 c12 207 84 508 174 731 96 239 205 426 378 651
50 65 97 127 105 138 13 18 11 23 -19 54 -19 19 -39 35 -46 35 -7 0 -42 -34
-78 -77z"/>
<path d="M6516 6865 c-9 -13 -16 -26 -16 -28 0 -3 79 -80 176 -172 l175 -168
25 25 25 25 -153 145 c-84 80 -167 157 -184 172 l-32 26 -16 -25z"/>
<path d="M3533 6698 l-75 -73 -41 48 c-25 28 -50 47 -63 47 -21 0 -54 -28 -54
-46 0 -5 23 -32 50 -59 l50 -49 -70 -71 c-38 -39 -70 -76 -70 -82 0 -6 12 -21
26 -32 l26 -21 75 67 c59 53 78 65 91 57 9 -6 17 -15 19 -20 2 -6 -26 -45 -63
-87 -67 -79 -72 -96 -34 -117 19 -10 29 -3 93 59 l73 71 64 -65 c36 -36 72
-65 81 -65 25 0 52 35 44 59 -3 11 -33 45 -67 76 l-61 57 62 62 c33 34 61 68
61 76 -1 19 -24 50 -38 50 -6 0 -41 -28 -77 -61 -64 -60 -66 -61 -85 -44 -11
10 -20 23 -20 29 0 6 32 43 70 81 39 38 70 73 70 77 0 10 -42 48 -53 48 -5 0
-43 -33 -84 -72z"/>
<path d="M6358 6706 l-18 -24 179 -171 178 -170 24 25 23 25 -44 43 c-177 171
-311 296 -317 296 -4 0 -16 -11 -25 -24z"/>
<path d="M6206 6546 c-15 -25 -15 -25 162 -195 l177 -170 22 21 c21 20 21 22
5 42 -29 36 -332 326 -341 326 -5 0 -16 -11 -25 -24z"/>
<path d="M2770 5310 c-19 -19 -20 -33 -20 -201 0 -105 4 -188 10 -200 7 -13
21 -19 45 -19 24 0 38 6 45 19 6 12 10 95 10 200 0 168 -1 182 -20 201 -11 11
-27 20 -35 20 -8 0 -24 -9 -35 -20z"/>
<path d="M3010 5310 c-18 -18 -20 -35 -22 -187 0 -93 0 -177 1 -188 2 -29 39
-57 65 -49 43 12 46 29 46 221 0 170 -1 184 -20 203 -11 11 -27 20 -35 20 -8
0 -24 -9 -35 -20z"/>
<path d="M7052 5274 c-48 -33 -14 -134 45 -134 30 0 73 44 73 75 0 32 -41 75
-72 75 -13 0 -34 -7 -46 -16z"/>
<path d="M7357 5279 c-49 -28 -36 -120 19 -133 75 -19 119 100 49 132 -31 14
-44 15 -68 1z"/>
<path d="M7070 5057 c-14 -7 -31 -25 -38 -40 -11 -22 -10 -31 2 -55 24 -47 67
-55 110 -21 65 51 0 153 -74 116z"/>
<path d="M7354 5047 c-56 -49 -20 -136 51 -123 36 7 65 39 65 71 0 24 -51 75
-75 75 -8 0 -26 -11 -41 -23z"/>
<path d="M2173 4853 c12 -287 89 -649 194 -913 203 -510 538 -948 980 -1279
355 -265 782 -464 1173 -546 149 -31 391 -65 466 -65 l54 0 0 60 c0 33 -3 60
-7 60 -5 0 -73 7 -151 15 -199 20 -339 48 -532 107 -471 142 -843 360 -1194
699 -302 291 -520 609 -656 955 -123 313 -185 600 -206 942 l-6 112 -61 0 -60
0 6 -147z"/>
<path d="M7930 4926 c0 -175 -47 -488 -106 -701 -96 -347 -253 -657 -474 -935
-113 -141 -392 -419 -513 -509 -384 -287 -761 -461 -1218 -565 -26 -6 -26 -6
-17 -63 5 -31 10 -58 11 -60 5 -4 175 37 277 67 323 97 678 273 945 470 542
399 892 877 1086 1485 55 170 115 490 129 690 15 216 21 195 -55 195 l-65 0 0
-74z"/>
<path d="M6588 3780 c-124 -65 -162 -121 -163 -240 0 -65 4 -82 30 -128 16
-30 51 -74 78 -97 44 -41 142 -89 177 -87 41 1 134 48 180 89 71 64 101 119
108 198 6 85 -15 140 -74 195 -39 36 -119 80 -144 80 -5 0 -21 5 -37 12 -48
20 -85 15 -155 -22z m263 -166 c23 -21 26 -92 4 -133 -16 -32 -97 -108 -132
-123 -18 -9 -29 -4 -68 27 -95 78 -123 175 -66 229 28 27 34 28 88 23 32 -3
67 -2 78 2 24 10 71 -2 96 -25z"/>
<path d="M3673 3743 c-70 -25 -73 -28 -103 -85 -18 -33 -30 -61 -28 -62 1 -2
19 -8 37 -15 34 -11 36 -10 78 31 24 23 43 46 43 51 0 5 14 28 30 52 45 65 46
65 -57 28z"/>
<path d="M3328 3729 c-31 -18 -21 -51 31 -101 l48 -46 26 25 26 26 -51 54
c-56 58 -55 57 -80 42z"/>
<path d="M3377 3482 c-64 -64 -117 -123 -117 -129 0 -18 41 -43 70 -43 19 0
51 26 128 103 56 57 102 109 102 116 0 19 -39 71 -53 71 -7 0 -65 -53 -130
-118z"/>
<path d="M3186 3549 c-43 -50 -57 -87 -57 -143 0 -139 109 -232 249 -211 49 7
80 33 186 154 l38 43 47 -46 c49 -48 71 -56 91 -31 17 21 6 45 -44 94 -42 41
-43 44 -30 69 16 31 18 62 5 62 -5 0 -66 -61 -137 -135 -140 -148 -165 -164
-238 -144 -104 29 -139 160 -66 250 34 43 37 54 14 63 -26 10 -31 8 -58 -25z"/>
<path d="M4930 3150 l0 -109 -112 -3 -113 -3 -3 -87 -3 -88 190 0 190 0 3 153
3 152 38 3 37 3 0 -155 0 -156 190 0 190 0 0 90 0 90 -115 0 -115 0 0 110 0
110 -190 0 -190 0 0 -110z"/>
<path d="M4700 2700 l0 -90 115 0 115 0 0 -105 0 -105 190 0 189 0 3 103 3
102 113 3 112 3 0 89 0 90 -190 0 -190 0 0 -145 0 -145 -35 0 -35 0 0 145 0
145 -195 0 -195 0 0 -90z"/>
<path d="M5273 2183 l-73 -4 0 -68 0 -68 58 5 c31 2 89 7 127 10 78 8 77 6 54
95 -11 42 9 38 -166 30z"/>
</g>
</svg>
